<svg width="440" height="400" viewBox="0 0 440 400" fill="none" xmlns="http://www.w3.org/2000/svg">
<path d="M407.24 336.57C410.16 325.89 419.67 290.04 426.13 253.73C433.83 210.38 440.57 150.67 409.75 125.62C378.93 100.57 338.47 130.44 317.28 120.81C296.09 111.18 295.13 63.01 238.28 48.57C181.43 34.13 149.66 84.2 124.62 111.17C99.58 138.14 71.62 119.84 35.04 148.74C-1.15998 177.32 29.54 306.74 56.31 336.57H407.24Z" fill="#414141"/>
<path opacity="0.7" d="M407.24 336.57C410.16 325.89 419.67 290.04 426.13 253.73C433.83 210.38 440.57 150.67 409.75 125.62C378.93 100.57 338.47 130.44 317.28 120.81C296.09 111.18 295.13 63.01 238.28 48.57C181.43 34.13 149.66 84.2 124.62 111.17C99.58 138.14 71.62 119.84 35.04 148.74C-1.15998 177.32 29.54 306.74 56.31 336.57H407.24Z" fill="white"/>
<path d="M417.21 133.71H338.71C338.329 133.713 337.964 133.865 337.695 134.135C337.425 134.404 337.273 134.769 337.27 135.15V337.15C337.27 337.533 337.421 337.9 337.691 338.172C337.961 338.443 338.327 338.597 338.71 338.6H417.21C417.595 338.6 417.963 338.447 418.235 338.175C418.507 337.903 418.66 337.535 418.66 337.15V135.15C418.657 134.767 418.503 134.401 418.232 134.131C417.96 133.861 417.593 133.71 417.21 133.71ZM415.77 335.71H340.16V136.6H415.77V335.71Z" fill="white"/>
<path d="M345.64 178.16H410.29C410.48 178.16 410.668 178.122 410.843 178.049C411.019 177.976 411.178 177.87 411.312 177.735C411.446 177.6 411.551 177.44 411.623 177.264C411.695 177.088 411.731 176.9 411.73 176.71V142.58C411.731 142.391 411.695 142.203 411.623 142.027C411.551 141.852 411.445 141.693 411.311 141.559C411.177 141.425 411.018 141.319 410.843 141.247C410.667 141.175 410.479 141.139 410.29 141.14H345.64C345.45 141.139 345.262 141.175 345.086 141.247C344.91 141.319 344.75 141.424 344.615 141.558C344.481 141.692 344.374 141.851 344.301 142.027C344.228 142.202 344.19 142.39 344.19 142.58V176.71C344.19 177.095 344.343 177.463 344.615 177.735C344.887 178.007 345.255 178.16 345.64 178.16ZM347.08 144H408.84V175.24H347.08V144ZM345.64 226.64H410.29C410.479 226.641 410.667 226.605 410.843 226.533C411.018 226.461 411.177 226.355 411.311 226.221C411.445 226.087 411.551 225.928 411.623 225.753C411.695 225.577 411.731 225.39 411.73 225.2V191.07C411.731 190.88 411.695 190.692 411.623 190.516C411.551 190.34 411.446 190.18 411.312 190.045C411.178 189.911 411.019 189.804 410.843 189.731C410.668 189.658 410.48 189.62 410.29 189.62H345.64C345.255 189.62 344.887 189.773 344.615 190.045C344.343 190.317 344.19 190.685 344.19 191.07V225.2C344.19 225.39 344.228 225.578 344.301 225.753C344.374 225.929 344.481 226.088 344.615 226.222C344.75 226.356 344.91 226.462 345.086 226.533C345.262 226.605 345.45 226.641 345.64 226.64ZM347.08 192.51H408.84V223.76H347.08V192.51ZM345.64 275.13H410.29C410.672 275.13 411.038 274.978 411.308 274.708C411.578 274.438 411.73 274.072 411.73 273.69V239.55C411.73 239.168 411.578 238.802 411.308 238.532C411.038 238.262 410.672 238.11 410.29 238.11H345.64C345.257 238.11 344.89 238.261 344.618 238.531C344.347 238.801 344.193 239.167 344.19 239.55V273.69C344.193 274.073 344.347 274.439 344.618 274.709C344.89 274.979 345.257 275.13 345.64 275.13ZM347.08 241H408.84V272.24H347.08V241ZM345.64 323.62H410.29C410.48 323.62 410.668 323.582 410.843 323.509C411.019 323.436 411.178 323.33 411.312 323.195C411.446 323.06 411.551 322.9 411.623 322.724C411.695 322.548 411.731 322.36 411.73 322.17V288C411.731 287.811 411.695 287.623 411.623 287.447C411.551 287.272 411.445 287.113 411.311 286.979C411.177 286.845 411.018 286.739 410.843 286.667C410.667 286.595 410.479 286.559 410.29 286.56H345.64C345.45 286.559 345.262 286.595 345.086 286.667C344.91 286.739 344.75 286.844 344.615 286.978C344.481 287.112 344.374 287.271 344.301 287.447C344.228 287.622 344.19 287.81 344.19 288V322.13C344.185 322.324 344.218 322.517 344.289 322.697C344.359 322.878 344.465 323.042 344.6 323.181C344.735 323.32 344.897 323.431 345.076 323.506C345.254 323.581 345.446 323.62 345.64 323.62ZM347.08 289.49H408.84V320.73H347.08V289.49ZM318.88 62H107.44C107.065 61.9999 106.705 62.1461 106.436 62.4076C106.167 62.669 106.01 63.0251 106 63.4V168.72C106 168.91 106.038 169.098 106.111 169.273C106.184 169.449 106.291 169.608 106.425 169.742C106.56 169.876 106.72 169.982 106.896 170.053C107.072 170.125 107.26 170.161 107.45 170.16H318.88C319.069 170.161 319.257 170.125 319.433 170.053C319.608 169.981 319.767 169.875 319.901 169.741C320.035 169.607 320.141 169.448 320.213 169.273C320.285 169.097 320.321 168.91 320.32 168.72V63.4C320.312 63.0243 320.157 62.6667 319.887 62.4047C319.618 62.1427 319.256 61.9973 318.88 62ZM317.43 64.89V162.61H108.88V64.85L317.43 64.89Z" fill="white"/>
<path d="M366.43 270.28L361.88 339C361.855 339.349 361.699 339.676 361.443 339.915C361.187 340.154 360.85 340.288 360.5 340.29C360.316 340.29 360.133 340.253 359.964 340.181C359.794 340.109 359.641 340.004 359.513 339.871C359.385 339.738 359.285 339.581 359.22 339.409C359.154 339.237 359.123 339.054 359.13 338.87L361 270.28H366.43ZM378.07 270.28L382.62 339C382.643 339.348 382.797 339.675 383.051 339.915C383.305 340.154 383.641 340.288 383.99 340.29C384.175 340.29 384.357 340.253 384.528 340.181C384.698 340.109 384.852 340.004 384.98 339.872C385.109 339.739 385.21 339.582 385.277 339.41C385.344 339.238 385.375 339.054 385.37 338.87L383.48 270.32L378.07 270.28ZM332.45 270.28L337 339C337.023 339.348 337.177 339.675 337.431 339.915C337.685 340.154 338.021 340.288 338.37 340.29C338.555 340.29 338.737 340.253 338.908 340.181C339.078 340.109 339.232 340.004 339.36 339.872C339.489 339.739 339.59 339.582 339.657 339.41C339.724 339.238 339.755 339.054 339.75 338.87L337.85 270.32L332.45 270.28ZM313.86 270.28L309.31 339C309.285 339.349 309.129 339.676 308.873 339.915C308.617 340.154 308.28 340.288 307.93 340.29C307.746 340.289 307.564 340.251 307.394 340.178C307.225 340.106 307.071 340.001 306.943 339.869C306.814 339.736 306.714 339.58 306.646 339.409C306.579 339.237 306.546 339.054 306.55 338.87L308.45 270.32L313.86 270.28Z" fill="#263238" stroke="#263238" stroke-linecap="round" stroke-linejoin="round"/>
<path d="M393.13 201C393.13 201 347.73 199.3 343.89 199.3C340.05 199.3 339.16 201 339.16 201L332.68 246.69C332.68 246.69 312.53 240.94 308.58 241.69C304.63 242.44 310.53 271.11 310.53 271.11H333.33L333.74 269.39H385.22L398.89 204.27C398.06 201.29 393.13 201 393.13 201Z" fill="white" stroke="#263238" stroke-linecap="round" stroke-linejoin="round"/>
<path d="M375.85 229.58C375.85 229.58 380.47 259.58 375.17 263.08C374.35 263.62 369.9 266.18 365.74 265.76C362.4 265.42 338.8 265.76 338.8 265.76C338.8 265.76 335.52 259.52 334.86 254.92C334.2 250.32 339.36 230.58 339.36 230.58L375.85 229.58Z" fill="white" stroke="#263238" stroke-linecap="round" stroke-linejoin="round"/>
<path d="M337.2 245.65C337.2 245.65 303.04 249.2 301.43 250.16C299.82 251.12 292.43 257.57 293.7 261.76C294.97 265.95 291.77 266.27 294.7 266.92C297.63 267.57 339.16 267.56 339.16 267.56" fill="#414141"/>
<path d="M337.2 245.65C337.2 245.65 303.04 249.2 301.43 250.16C299.82 251.12 292.43 257.57 293.7 261.76C294.97 265.95 291.77 266.27 294.7 266.92C297.63 267.57 339.16 267.56 339.16 267.56" stroke="#263238" stroke-linecap="round" stroke-linejoin="round"/>
<path d="M387.3 271.06H306.13V265H387.3V271.06Z" fill="white" stroke="#263238" stroke-linecap="round" stroke-linejoin="round"/>
<path d="M368.13 246.94H319.23C319.23 246.94 316.66 249.84 316.33 255.94C316 262.04 316.66 263.35 321.17 264.94C325.68 266.53 365.74 265.72 365.74 265.72" fill="#414141"/>
<path d="M368.13 246.94H319.23C319.23 246.94 316.66 249.84 316.33 255.94C316 262.04 316.66 263.35 321.17 264.94C325.68 266.53 365.74 265.72 365.74 265.72" stroke="#263238" stroke-linecap="round" stroke-linejoin="round"/>
<path d="M329.6 324.54L324.48 312.41L316.09 314L322.51 324.82L318.81 332.23L310.81 337.46C310.81 337.46 309.88 338.38 313.88 338.07C317.88 337.76 326.18 338.07 326.18 338.07L331.41 331.92C331.41 331.92 333.31 328.79 329.6 324.54Z" fill="white" stroke="#263238" stroke-linecap="round" stroke-linejoin="round"/>
<path d="M331.84 329.84L332.05 337.77H330.8L329.13 333.81L331.84 329.84Z" fill="#263238" stroke="#263238" stroke-linecap="round" stroke-linejoin="round"/>
<path d="M326.19 338.11L331.42 331.96C331.42 331.96 332.77 329.67 330.91 326.37C327.19 332.73 322.24 334.64 322.24 334.64L317.08 333.4L310.82 337.5C310.82 337.5 309.89 338.42 313.89 338.11C317.89 337.8 326.19 338.11 326.19 338.11Z" fill="#263238" stroke="#263238" stroke-linecap="round" stroke-linejoin="round"/>
<path d="M309.49 262.73L326.64 314.58L314.47 316.74L290.47 262.74C290.47 262.74 288.54 254.68 293.69 252.11C298.84 249.54 313.99 248.24 313.99 248.24" fill="#414141"/>
<path d="M309.49 262.73L326.64 314.58L314.47 316.74L290.47 262.74C290.47 262.74 288.54 254.68 293.69 252.11C298.84 249.54 313.99 248.24 313.99 248.24" stroke="#263238" stroke-linecap="round" stroke-linejoin="round"/>
<path d="M364.5 271.05C364.5 271.05 358.59 242.34 362.55 241.63C366.51 240.92 386.65 246.63 386.65 246.63L393.13 201C393.13 201 399.97 199.92 400.69 206C401.41 212.08 387.3 271.05 387.3 271.05H364.5Z" fill="#263238" stroke="#263238" stroke-linecap="round" stroke-linejoin="round"/>
<path d="M294.91 186.52L291.86 181.52C291.566 181.041 291.152 180.647 290.659 180.377C290.167 180.107 289.612 179.97 289.05 179.98L286.18 180.03L281.27 178.56C280.958 178.469 280.626 178.472 280.316 178.57C280.007 178.668 279.733 178.856 279.53 179.11L279.35 179.34L283.87 181.34L279.36 183L274.57 180.57C274.381 180.473 274.164 180.446 273.958 180.494C273.751 180.541 273.568 180.66 273.44 180.83C273.295 181.018 273.23 181.257 273.26 181.493C273.29 181.729 273.412 181.944 273.6 182.09L280.3 187.26C280.51 187.423 280.753 187.54 281.011 187.602C281.27 187.664 281.539 187.67 281.8 187.62L289.21 186.13L291.28 188.39L294.91 186.52Z" fill="white" stroke="#263238" stroke-linecap="round" stroke-linejoin="round"/>
<path d="M346.57 176.26L319.1 204.99L292.88 183.8L289.26 186.43L318.11 219.12L343.12 205.65L346.57 176.26ZM387.67 183.6L402.07 227.85L389.65 228.21L377.3 207.44C377.3 207.44 384.24 186.49 387.67 183.6Z" fill="white" stroke="#263238" stroke-linecap="round" stroke-linejoin="round"/>
<path d="M372 176L387.67 183.65L374.55 220.34L376.1 230.57L339.36 230.63L343.74 214.15L340.74 203.59C340.351 202.22 340.33 200.771 340.68 199.39L346.56 176.31L362 173.83L372 176Z" fill="white" stroke="#263238" stroke-linecap="round" stroke-linejoin="round"/>
<path d="M371.25 173.85C371.25 173.85 374.33 175.93 374.43 177.78C374.48 178.87 374.43 180.78 374.33 182.24C374.275 183.381 374.014 184.502 373.56 185.55L368.01 192.25L361.59 187.18L356.26 189.9C356.26 189.9 355.26 181.73 357.59 176.03C359.92 170.33 370.06 172.42 371.25 173.85Z" fill="white" stroke="#263238" stroke-linecap="round" stroke-linejoin="round"/>
<path d="M375.66 158C375.66 158 374.4 162.53 373.81 165.53C373.22 168.53 372.03 174.53 372.14 176.78C372.25 179.03 362.78 188.61 361.59 187.18C360.4 185.75 359.15 177.44 359.15 177.44L360.33 164C360.33 164 372.67 150.33 375.66 158Z" fill="white" stroke="#263238" stroke-linecap="round" stroke-linejoin="round"/>
<path d="M355.87 151C355.87 151 354.18 153.79 354.18 155C354.18 156.21 354.77 158.58 354.67 159.27C354.57 159.96 352.89 162.27 352.67 163.05C352.559 163.367 352.569 163.714 352.696 164.025C352.823 164.337 353.059 164.591 353.36 164.74C353.768 164.949 354.166 165.179 354.55 165.43C354.55 165.43 355.05 171.59 355.85 173.18C356.65 174.77 357.34 175.47 359.72 175.67C362.1 175.87 367.77 173.38 368.56 171.39C369.35 169.4 369.46 167.02 369.56 164.14C369.66 161.26 367.67 157.14 366.18 153.21C364.69 149.28 358.45 147.12 355.87 151Z" fill="white" stroke="#263238" stroke-linecap="round" stroke-linejoin="round"/>
<path d="M381.52 171.34C385.734 171.34 389.15 167.924 389.15 163.71C389.15 159.496 385.734 156.08 381.52 156.08C377.306 156.08 373.89 159.496 373.89 163.71C373.89 167.924 377.306 171.34 381.52 171.34Z" fill="#263238" stroke="#263238" stroke-linecap="round" stroke-linejoin="round"/>
<path d="M355.83 150.57C355.83 150.57 358.9 147.92 364.42 153.19C369.94 158.46 367.84 166.08 371.53 167.66C375.22 169.24 382.05 161.34 382.84 157.4C383.63 153.46 381.26 145.29 373.89 143.71C366.52 142.13 357.49 143.21 355.83 150.57Z" fill="#263238" stroke="#263238" stroke-linecap="round" stroke-linejoin="round"/>
<path d="M355.83 150.57C355.765 149.95 355.841 149.324 356.054 148.738C356.267 148.152 356.611 147.623 357.059 147.19C357.508 146.757 358.049 146.432 358.641 146.24C359.234 146.047 359.863 145.993 360.48 146.08C365.48 146.35 366 154.24 368.63 157.4C371.26 160.56 372.58 160.03 372.58 160.03C372.58 160.03 368.11 161.34 365.21 159.76C362.31 158.18 360.91 149.27 355.83 150.57Z" fill="#263238" stroke="#263238" stroke-linecap="round" stroke-linejoin="round"/>
<path d="M364 145.16C366.631 146.785 368.719 149.155 370 151.97C372.27 156.78 372.27 160.75 377.66 160.47C377.66 160.47 375.11 161.04 371.14 159.05C367.17 157.06 366.32 151.4 363.77 149.13C362.379 147.813 360.579 147.012 358.67 146.86M382.84 157.4C382.84 157.4 382.61 164.62 377.07 166.14" stroke="white" stroke-width="0.5" stroke-linecap="round" stroke-linejoin="round"/>
<path d="M367.38 164.77C367.38 164.77 372.66 157.86 373.9 163.02C375.14 168.18 370.9 169.44 368.9 168.85C366.9 168.26 367.18 167.19 367.18 167.19M355.63 223.9C355.63 223.9 345.55 225.3 343.87 225.3C342.19 225.3 337.99 230.62 337.99 230.62H356.47L355.63 223.9Z" fill="white"/>
<path d="M367.38 164.77C367.38 164.77 372.66 157.86 373.9 163.02C375.14 168.18 370.9 169.44 368.9 168.85C366.9 168.26 367.18 167.19 367.18 167.19M355.63 223.9C355.63 223.9 345.55 225.3 343.87 225.3C342.19 225.3 337.99 230.62 337.99 230.62H356.47L355.63 223.9Z" stroke="#263238" stroke-linecap="round" stroke-linejoin="round"/>
<path d="M398.45 217.12L402.07 225.28C402.232 225.76 402.279 226.272 402.206 226.774C402.133 227.276 401.942 227.753 401.65 228.167C401.358 228.582 400.971 228.921 400.523 229.158C400.075 229.395 399.577 229.522 399.07 229.53L355.37 229.78L355.65 223.9L389.53 218.54" fill="white"/>
<path d="M398.45 217.12L402.07 225.28C402.232 225.76 402.279 226.272 402.206 226.774C402.133 227.276 401.942 227.753 401.65 228.167C401.358 228.582 400.971 228.921 400.523 229.158C400.075 229.395 399.577 229.522 399.07 229.53L355.37 229.78L355.65 223.9L389.53 218.54" stroke="#263238" stroke-linecap="round" stroke-linejoin="round"/>
<path d="M339.96 329.84L340.17 337.77H338.92L337.25 333.81L339.96 329.84Z" fill="#263238" stroke="#263238" stroke-linecap="round" stroke-linejoin="round"/>
<path d="M337.72 324.54L336.11 313L327.73 313.54L330.63 324.9L326.93 332.31L318.93 337.54C318.93 337.54 318.01 338.46 322.01 338.15C326.01 337.84 334.31 338.15 334.31 338.15L339.54 332C339.54 332 341.43 328.79 337.72 324.54Z" fill="white" stroke="#263238" stroke-linecap="round" stroke-linejoin="round"/>
<path d="M334.31 338.11L339.54 331.96C339.54 331.96 340.89 329.67 339.02 326.37C335.3 332.73 330.35 334.64 330.35 334.64L325.2 333.4L318.93 337.5C318.93 337.5 318.01 338.42 322.01 338.11C326.01 337.8 334.31 338.11 334.31 338.11Z" fill="#263238" stroke="#263238" stroke-linecap="round" stroke-linejoin="round"/>
<path d="M333.88 253.8L337.47 315.12L326.1 315.39L315 259.68C315 259.68 315.21 249.07 318.6 247.85C321.99 246.63 330.99 247.94 330.99 247.94" fill="#414141"/>
<path d="M333.88 253.8L337.47 315.12L326.1 315.39L315 259.68C315 259.68 315.21 249.07 318.6 247.85C321.99 246.63 330.99 247.94 330.99 247.94" stroke="#263238" stroke-linecap="round" stroke-linejoin="round"/>
<path d="M284.18 121.81L298.29 161.36C298.29 161.36 296.43 170.31 290.83 169.94C285.23 169.57 283.74 161.73 282.25 160.61C280.76 159.49 278.52 150.91 278.52 150.91L284.18 121.81Z" fill="white" stroke="#263238" stroke-linecap="round" stroke-linejoin="round"/>
<path d="M247.68 113.88L224.74 122.16L233.54 185.77H274.93L284.18 121.81L259.42 114.06L247.68 113.88Z" fill="white" stroke="#263238" stroke-linecap="round" stroke-linejoin="round"/>
<path d="M249.89 124.78L253.2 129.77L250.33 172.09L254.55 183.11L258.88 172.39L255.17 130.4L258.15 123.19L254.02 117.76L249.89 124.78Z" fill="#414141" stroke="#263238" stroke-linecap="round" stroke-linejoin="round"/>
<path d="M254.47 122.72L248.56 127.15L244.67 115.6L247.38 109.75L259.47 109.46L262.42 112.11L261.83 126.85L254.47 122.72Z" fill="white" stroke="#263238" stroke-linecap="round" stroke-linejoin="round"/>
<path d="M260.72 106.75L259.8 114.18L253.18 122.72L248.23 114.06V100.13C248.23 100.13 256.9 102.3 260.72 106.75Z" fill="white" stroke="#263238" stroke-linecap="round" stroke-linejoin="round"/>
<path d="M244.83 91.3098C244.83 84.5598 249.75 79.0898 255.83 79.0898C261.91 79.0898 265.28 84.8598 265.28 91.6098C265.28 93.7898 264.83 97.5299 264.65 99.5199C264.34 102.92 263.31 104.36 261.3 107.41C254.71 117.41 249.3 102.74 246.53 97.8098C245.409 95.8275 244.823 93.5873 244.83 91.3098Z" fill="white" stroke="#263238" stroke-linecap="round" stroke-linejoin="round"/>
<path d="M260.61 93.4297L261.54 100.4L258.27 100.31" fill="white"/>
<path d="M260.61 93.4297L261.54 100.4L258.27 100.31" stroke="#263238" stroke-linecap="round" stroke-linejoin="round"/>
<path d="M267.91 92.2197L252.19 92.2897C251.997 92.9011 251.967 93.5524 252.104 94.1787C252.241 94.8051 252.54 95.3846 252.97 95.8597C253.97 96.8597 258.04 96.5097 258.69 96.2497C259.34 95.9897 259.69 93.1297 259.69 93.1297H260.86C260.86 93.1297 260.99 96.1297 262.67 96.3797C264.35 96.6297 266.54 96.5497 266.96 96.2497C268.82 94.9997 267.91 92.2197 267.91 92.2197Z" fill="white" stroke="#263238" stroke-linecap="round" stroke-linejoin="round"/>
<path d="M246.77 98.9398C246.77 98.9398 250.31 106.19 251.15 108.7C251.99 111.21 256.15 113.17 260.36 111.77C264.57 110.37 263.43 104.14 263.43 104.14C263.43 104.14 258.96 100.32 258.13 101.14C257.3 101.96 252.82 105.61 252.54 104.77C252.26 103.93 250.31 98.9098 250.31 98.9098L249.4 95.3498L251.27 94.1498C251.54 93.925 251.716 93.6069 251.762 93.2586C251.808 92.9103 251.722 92.5574 251.52 92.2698L250.64 90.9998C250.532 90.8443 250.455 90.6686 250.416 90.4831C250.376 90.2976 250.374 90.1061 250.41 89.9198C250.64 88.8298 251.27 86.5698 252.73 85.9198C254.73 85.0898 257.16 86.2998 259.4 86.8598C261.64 87.4198 264.07 85.3998 264.07 85.3998L265.07 88.7198C267.287 86.639 268.863 83.9672 269.61 81.0198C270.73 76.2698 259.28 74.3198 255.61 74.3198C251.94 74.3198 246.12 76.3198 244.44 81.5798C242.76 86.8398 245.78 97.9998 246.77 98.9398Z" fill="#263238" stroke="#263238" stroke-linecap="round" stroke-linejoin="round"/>
<path d="M255.83 81.0498C255.83 81.0498 257.91 84.1698 255.18 84.8198C252.45 85.4698 247.13 83.1298 244.79 84.0398M251.15 87.9298C251.15 87.9298 246.87 87.4098 245.15 89.2298M261.45 103.7C261.45 103.7 258.3 105.34 256.74 103.39" stroke="white" stroke-width="0.5" stroke-linecap="round" stroke-linejoin="round"/>
<path d="M247.3 96.7299C247.3 96.7299 244.21 93.3299 244.21 97.0399C244.21 100.75 245.14 100.75 246.99 102.04C248.84 103.33 249.47 101.73 249.47 101.73" fill="white"/>
<path d="M247.3 96.7299C247.3 96.7299 244.21 93.3299 244.21 97.0399C244.21 100.75 245.14 100.75 246.99 102.04C248.84 103.33 249.47 101.73 249.47 101.73" stroke="#263238" stroke-linecap="round" stroke-linejoin="round"/>
<path d="M288.56 327.24H288.7L288.43 325.88L274.93 185.78H233.54L219.93 327.23H220.08L228.86 327.98C228.86 327.98 238.6 295.28 238.6 292.84C238.6 290.4 241.38 267.84 241.38 267.84L255.19 219.29L267.4 267.84C267.4 267.84 270.18 290.45 270.18 292.84C270.18 295.23 279.93 328 279.93 328L288.19 327.29H288.56V327.24Z" fill="#263238" stroke="#263238" stroke-linecap="round" stroke-linejoin="round"/>
<path d="M271.84 194.02L262.63 207.17M266.91 196.98L261.32 206.19M240.61 196.33L248.82 205.2M239.95 199.61L251.78 211.45M236 187.12H272.5" stroke="white" stroke-width="0.5" stroke-linecap="round" stroke-linejoin="round"/>
<path d="M220.08 327.23C220.08 327.23 214.81 331.38 211.77 332.52C208.73 333.66 203.05 336.69 203.05 336.69C203.05 336.69 203.05 338.59 207.98 338.59H227.33L227 327.23H220.08Z" fill="#263238" stroke="#263238" stroke-linecap="round" stroke-linejoin="round"/>
<path d="M227.26 336.52C219.533 336.873 211.792 336.749 204.08 336.15L203.08 336.69C203.08 336.69 203.08 338.59 208.01 338.59H227.36L227.26 336.52Z" fill="white" stroke="#263238" stroke-linecap="round" stroke-linejoin="round"/>
<path d="M287.76 327.23C287.76 327.23 293.04 331.38 296.07 332.52C299.1 333.66 304.8 336.69 304.8 336.69C304.8 336.69 304.8 338.59 299.86 338.59H280.52L280.87 327.23H287.76Z" fill="#263238" stroke="#263238" stroke-linecap="round" stroke-linejoin="round"/>
<path d="M280.58 336.52C288.307 336.873 296.048 336.749 303.76 336.15L304.76 336.69C304.76 336.69 304.76 338.59 299.82 338.59H280.52L280.58 336.52ZM224.74 122.16L209.5 162.85H224.12L229.58 151.75L224.74 122.16Z" fill="white" stroke="#263238" stroke-linecap="round" stroke-linejoin="round"/>
<path d="M291.41 156.55C285.31 154.03 265.74 152.78 264.72 152.78C263.7 152.78 231.89 150.16 229.28 149.78C226.67 149.4 223.68 155.38 223.68 155.38L237.48 155L254.27 158.36C254.27 158.36 288.27 170.67 290.83 169.93C291.179 169.813 291.495 169.614 291.75 169.35" fill="white"/>
<path d="M291.41 156.55C285.31 154.03 265.74 152.78 264.72 152.78C263.7 152.78 231.89 150.16 229.28 149.78C226.67 149.4 223.68 155.38 223.68 155.38L237.48 155L254.27 158.36C254.27 158.36 288.27 170.67 290.83 169.93C291.179 169.813 291.495 169.614 291.75 169.35" stroke="#263238" stroke-linecap="round" stroke-linejoin="round"/>
<path d="M220.32 154.64L272.92 149.42L273.3 153.89L227.78 167.7C227.78 167.7 219.58 169.56 213.23 168.44C206.88 167.32 209.88 160.98 211.37 157.25" fill="white"/>
<path d="M220.32 154.64L272.92 149.42L273.3 153.89L227.78 167.7C227.78 167.7 219.58 169.56 213.23 168.44C206.88 167.32 209.88 160.98 211.37 157.25" stroke="#263238" stroke-linecap="round" stroke-linejoin="round"/>
<path d="M272.93 149.42L283 149.04L285.98 155.01L273.3 153.9L272.93 149.42Z" fill="white" stroke="#263238" stroke-linecap="round" stroke-linejoin="round"/>
<path d="M340 237.16L348.59 339.43C348.613 339.583 348.666 339.729 348.747 339.86C348.828 339.991 348.936 340.104 349.062 340.192C349.188 340.28 349.332 340.341 349.482 340.372C349.633 340.402 349.789 340.402 349.94 340.37C350.197 340.306 350.423 340.152 350.575 339.935C350.728 339.718 350.797 339.454 350.77 339.19L344.92 237.19L340 237.16ZM397.73 237.16L406.35 339.77C406.371 339.923 406.424 340.07 406.505 340.202C406.585 340.334 406.693 340.447 406.819 340.535C406.946 340.624 407.09 340.685 407.241 340.715C407.393 340.745 407.549 340.743 407.7 340.71C407.957 340.646 408.183 340.492 408.335 340.275C408.488 340.058 408.557 339.794 408.53 339.53L402.66 237.16H397.73ZM159.49 237.16L155 338.54C154.975 338.806 155.046 339.072 155.2 339.29C155.354 339.509 155.581 339.665 155.84 339.73C155.988 339.768 156.143 339.774 156.294 339.747C156.445 339.72 156.589 339.661 156.715 339.574C156.841 339.487 156.947 339.373 157.025 339.241C157.104 339.11 157.153 338.963 157.17 338.81L164.44 237.16H159.49ZM106.28 237.16L101.76 338.16C101.738 338.427 101.811 338.693 101.966 338.911C102.122 339.129 102.35 339.285 102.61 339.35C102.758 339.387 102.913 339.391 103.063 339.363C103.214 339.336 103.356 339.276 103.482 339.19C103.608 339.103 103.714 338.99 103.793 338.859C103.871 338.728 103.922 338.582 103.94 338.43L111.18 237.12L106.28 237.16Z" fill="#263238" stroke="#263238" stroke-linecap="round" stroke-linejoin="round"/>
<path d="M103.08 231.49H408.97V240.27H103.08V231.49Z" fill="#414141" stroke="#263238" stroke-linecap="round" stroke-linejoin="round"/>
<path d="M103.08 231.49H408.97V234.5H103.08V231.49Z" fill="#263238" stroke="#263238" stroke-linecap="round" stroke-linejoin="round"/>
<path d="M332.42 231.49H408.96V240.27H332.42V231.49Z" fill="#263238" stroke="#263238" stroke-linecap="round" stroke-linejoin="round"/>
<path d="M100.35 228.57H411.69V231.92H100.35V228.57Z" fill="#414141" stroke="#263238" stroke-linecap="round" stroke-linejoin="round"/>
<path d="M335.61 228.57H411.68V231.92H335.61V228.57Z" fill="#263238" stroke="#263238" stroke-linecap="round" stroke-linejoin="round"/>
<path d="M169.7 228.27H211.48C211.639 228.271 211.796 228.225 211.929 228.138C212.062 228.051 212.167 227.926 212.23 227.78L223.8 201.4C223.853 201.276 223.875 201.141 223.863 201.007C223.851 200.873 223.805 200.744 223.731 200.632C223.656 200.52 223.555 200.428 223.436 200.365C223.317 200.302 223.185 200.269 223.05 200.27H181.27C181.113 200.27 180.96 200.315 180.829 200.4C180.698 200.486 180.594 200.607 180.53 200.75L169 227.13C168.946 227.25 168.922 227.382 168.931 227.514C168.94 227.645 168.98 227.773 169.049 227.885C169.118 227.997 169.213 228.091 169.327 228.158C169.44 228.225 169.568 228.264 169.7 228.27Z" fill="white" stroke="#263238" stroke-linecap="round" stroke-linejoin="round"/>
<path d="M173.62 226.21H209.27C209.403 226.21 209.534 226.171 209.646 226.099C209.758 226.026 209.846 225.922 209.9 225.8L219.77 203.29C219.823 203.184 219.848 203.066 219.843 202.947C219.837 202.828 219.801 202.713 219.737 202.612C219.674 202.512 219.586 202.429 219.481 202.373C219.376 202.316 219.259 202.288 219.14 202.29H183.49C183.354 202.289 183.22 202.329 183.106 202.403C182.992 202.478 182.903 202.585 182.85 202.71L173 225.24C172.954 225.344 172.934 225.459 172.943 225.572C172.951 225.686 172.988 225.796 173.049 225.892C173.111 225.988 173.195 226.067 173.294 226.123C173.394 226.178 173.506 226.208 173.62 226.21Z" fill="#414141" stroke="#263238" stroke-linecap="round" stroke-linejoin="round"/>
<path d="M149.29 226.52H212.06V228.57H149.29V226.52Z" fill="white" stroke="#263238" stroke-linecap="round" stroke-linejoin="round"/>
<path d="M181.64 226.52H212.07V228.57H181.64V226.52ZM221.16 212.25H232.23V228.61H221.16V212.25Z" fill="white" stroke="#263238" stroke-linecap="round" stroke-linejoin="round"/>
<path d="M231.74 226.38H230.58C230.339 226.38 230.107 226.284 229.936 226.113C229.766 225.943 229.67 225.711 229.67 225.47C229.67 225.229 229.766 224.997 229.936 224.827C230.107 224.656 230.339 224.56 230.58 224.56H231.74C232.198 224.557 232.636 224.374 232.96 224.05C233.284 223.727 233.467 223.288 233.47 222.83V218.83C233.467 218.372 233.284 217.934 232.96 217.61C232.636 217.286 232.198 217.103 231.74 217.1H230.25C230.13 217.1 230.012 217.076 229.902 217.031C229.791 216.985 229.691 216.918 229.607 216.833C229.522 216.749 229.455 216.649 229.409 216.538C229.364 216.428 229.34 216.31 229.34 216.19C229.34 216.071 229.364 215.952 229.409 215.842C229.455 215.731 229.522 215.631 229.607 215.547C229.691 215.462 229.791 215.395 229.902 215.349C230.012 215.304 230.13 215.28 230.25 215.28H231.74C232.206 215.28 232.668 215.372 233.099 215.55C233.529 215.729 233.921 215.99 234.25 216.32C234.58 216.649 234.841 217.041 235.02 217.471C235.198 217.902 235.29 218.364 235.29 218.83V222.83C235.29 223.296 235.198 223.758 235.02 224.189C234.841 224.619 234.58 225.011 234.25 225.34C233.921 225.67 233.529 225.931 233.099 226.11C232.668 226.288 232.206 226.38 231.74 226.38ZM318.72 228.27H276.94C276.782 228.269 276.628 228.222 276.497 228.135C276.365 228.048 276.262 227.925 276.2 227.78L264.63 201.4C264.577 201.277 264.556 201.143 264.567 201.01C264.579 200.876 264.623 200.748 264.696 200.636C264.77 200.524 264.87 200.432 264.987 200.368C265.105 200.305 265.236 200.271 265.37 200.27H307.15C307.308 200.269 307.463 200.314 307.596 200.399C307.729 200.484 307.834 200.606 307.9 200.75L319.47 227.13C319.523 227.254 319.544 227.39 319.532 227.524C319.519 227.659 319.474 227.788 319.4 227.901C319.326 228.014 319.225 228.106 319.106 228.171C318.988 228.235 318.855 228.269 318.72 228.27Z" fill="white" stroke="#263238" stroke-linecap="round" stroke-linejoin="round"/>
<path d="M339.13 228.57H276.36V226.52H339.13V228.57Z" fill="white" stroke="#263238" stroke-linecap="round" stroke-linejoin="round"/>
<path d="M319.64 228.57H276.36V226.52H319.64V228.57ZM292.74 211.22C292.966 211.648 293.061 212.134 293.013 212.616C292.965 213.098 292.775 213.554 292.468 213.929C292.161 214.304 291.751 214.579 291.288 214.722C290.825 214.864 290.33 214.866 289.866 214.728C289.401 214.591 288.988 214.319 288.677 213.947C288.367 213.575 288.173 213.12 288.12 212.639C288.067 212.157 288.158 211.671 288.38 211.241C288.602 210.81 288.947 210.455 289.37 210.22C289.95 209.907 290.63 209.836 291.262 210.024C291.893 210.211 292.425 210.641 292.74 211.22Z" fill="white" stroke="#263238" stroke-linecap="round" stroke-linejoin="round"/>
<path d="M97.37 133.57L100.45 164L114.45 204.53L109.66 207.27L93.22 170.17L85.01 138.32C85.01 138.32 84.32 128.74 87.75 127.32C91.18 125.9 96 127.41 97.37 133.57ZM114.49 204.57C114.49 204.57 117.57 211.08 117.92 212.79C118.27 214.5 118.62 217.99 117.27 219.55C115.64 221.43 114.15 219.98 114.15 219.98C114.15 219.98 110.04 218.98 110.04 215.53C110.04 212.08 109.7 207.31 109.7 207.31L114.49 204.57Z" fill="white" stroke="#263238" stroke-linecap="round" stroke-linejoin="round"/>
<path d="M111.13 214.78L116.9 216.28" stroke="#263238" stroke-linecap="round" stroke-linejoin="round"/>
<path d="M112.51 210.89L114.15 213.47C114.15 213.47 110.33 220 112.38 218.29C114.43 216.58 118.26 214.5 117.92 212.79C117.341 210.996 116.577 209.267 115.64 207.63" fill="white"/>
<path d="M112.51 210.89L114.15 213.47C114.15 213.47 110.33 220 112.38 218.29C114.43 216.58 118.26 214.5 117.92 212.79C117.341 210.996 116.577 209.267 115.64 207.63" stroke="#263238" stroke-linecap="round" stroke-linejoin="round"/>
<path d="M81.0001 97.0002C81.0001 97.0002 77.4801 93.2002 69.3601 95.6402C61.2401 98.0802 59.3601 111.08 59.6101 117.57C59.8601 124.06 66.1101 131.38 64.2201 134.63C62.3301 137.88 55.2801 145.46 55.8201 153.63C56.3601 161.8 63.1301 168.25 72.8801 165.27C82.6301 162.29 81.0001 150.36 79.0601 146C77.1201 141.64 81.2301 139.77 82.5801 130.29C83.9301 120.81 75.2701 112.96 75.2701 106.19C75.2701 99.4202 82.2701 100.51 82.2701 100.51L81.0001 97.0002Z" fill="#263238" stroke="#263238" stroke-linecap="round" stroke-linejoin="round"/>
<path d="M68.8001 122.7C70.0801 125.34 71.5701 128.16 73.0501 131.2C77.9901 141.28 74.1301 144.92 66.6201 150.5C59.1101 156.08 60.8301 162.94 62.7601 164M78.4201 99.6704C78.4201 99.6704 68.3401 100.53 65.7601 106.96C64.2001 110.87 65.4001 115.25 67.7001 120.35M71.0501 161.49C71.8256 161.782 72.6526 161.911 73.4801 161.87" stroke="white" stroke-width="0.5" stroke-linecap="round" stroke-linejoin="round"/>
<path d="M81 99C81 99 71.56 100.71 69.42 107.57C67.28 114.43 79.93 124.57 80.57 132.03C81.21 139.49 72.2 143.85 69 149.64C66.75 153.7 67 158.17 69.37 160.42" stroke="white" stroke-width="0.5" stroke-linecap="round" stroke-linejoin="round"/>
<path d="M105.22 237.07C105.22 237.07 102.89 257.19 100.55 263.61C98.2101 270.03 92.97 320.48 92.68 323.4C92.39 326.32 100.26 333.02 103.47 335.07C106.68 337.12 105.22 337.69 101.72 337.98C98.22 338.27 94.14 337.69 92.39 334.48C90.64 331.27 86.5501 330.4 86.5501 330.4L85.97 337.4H84.8001L83.93 328.65C83.6327 326.664 83.9356 324.634 84.8001 322.82C86.2601 319.61 86.8001 312.9 86.8001 303.82C86.8001 294.74 85.05 280.19 85.92 273.19C86.79 266.19 90.3001 260.94 90.3001 255.11C90.3001 249.28 90.59 240.53 90.59 240.53L105.22 237.07Z" fill="white" stroke="#263238" stroke-linecap="round" stroke-linejoin="round"/>
<path d="M83.9301 328.65C83.6978 327.145 83.8246 325.607 84.3001 324.16C86.1101 327.22 91.3001 331.37 95.3001 333.02C97.4689 333.959 99.8333 334.357 102.19 334.18C102.66 334.53 103.1 334.83 103.47 335.07C106.68 337.07 105.22 337.69 101.72 337.98C98.2201 338.27 94.1401 337.69 92.3901 334.48C90.6401 331.27 86.5501 330.4 86.5501 330.4L85.9701 337.4H84.8001L83.9301 328.65Z" fill="#263238" stroke="#263238" stroke-linecap="round" stroke-linejoin="round"/>
<path d="M88.3 240.28C88.3 240.28 83.3 255.15 78.68 267.98C74.06 280.81 62.93 310.27 61.76 315.52C60.59 320.77 60.01 330.4 56.76 335.36C53.51 340.32 50.34 342.65 50.92 333.9C51.5 325.15 56.76 318.73 57.92 312.02C59.08 305.31 59.67 281.11 63.75 270.32C67.83 259.53 72.21 250.78 72.75 247.57C73.1488 244.376 73.3426 241.16 73.33 237.94L88.3 240.28Z" fill="white" stroke="#263238" stroke-linecap="round" stroke-linejoin="round"/>
<path d="M51.52 330.15C51.5631 331.8 52.0766 333.403 53 334.77C54.68 336.65 57.39 333 58.8 330.77C58.3387 332.379 57.6661 333.919 56.8 335.35C53.59 340.3 50.38 342.64 50.96 333.89C51.0564 332.632 51.2436 331.382 51.52 330.15Z" fill="#263238" stroke="#263238" stroke-linecap="round" stroke-linejoin="round"/>
<path d="M86.0001 122.9C86.0001 122.9 84.2501 124.36 83.0801 134.28C81.9101 144.2 89.2101 175.11 89.2101 175.11C89.2101 175.11 76.6701 195.65 73.7501 205.86C70.8301 216.07 69.0801 254.32 69.0801 254.32C69.0801 254.32 75.2101 256.66 87.7501 257.53C100.29 258.4 107 255.2 107 255.2C107 255.2 107.58 200.61 107.58 192.2C107.58 183.79 108.17 164.66 109.04 162.33C109.91 160 112.54 153.87 112.54 151.54C112.54 149.21 95.0001 124.36 95.0001 124.36L86.0001 122.9Z" fill="white" stroke="#263238" stroke-linecap="round" stroke-linejoin="round"/>
<path d="M73.72 205.86C76.02 197.86 85.54 176.58 88.94 172.92C94.11 174.64 103.54 176.34 107.75 175.08C107.62 178.08 107.55 189.28 107.55 192.15C107.55 200.61 106.97 255.15 106.97 255.15C106.97 255.15 100.26 258.36 87.72 257.48C75.18 256.6 69.05 254.27 69.05 254.27C69.05 254.27 70.8 216.07 73.72 205.86ZM92.47 88.5202C92.47 88.5202 95.6 81.7002 101.79 81.7002C107.98 81.7002 110.73 87.2002 109.36 92.0102C107.99 96.8202 113.48 95.4502 114.17 98.5502C114.86 101.65 109.7 103.7 106.95 103.7C104.2 103.7 92.47 88.5202 92.47 88.5202Z" fill="#263238" stroke="#263238" stroke-linecap="round" stroke-linejoin="round"/>
<path d="M101.51 87.8201C103.35 86.8201 105.51 86.1001 106.51 87.6601C108.44 90.6601 102.44 93.0201 104.37 96.2401C106.3 99.4601 111.02 98.6001 110.8 99.6701C110.58 100.74 107.59 101.38 107.59 101.38M98.36 90.0001C98.36 90.0001 98.95 89.4901 99.83 88.8701" stroke="white" stroke-width="0.5" stroke-linecap="round" stroke-linejoin="round"/>
<path d="M108.34 104.39C107.902 104.065 107.557 103.63 107.34 103.13C106.84 99.4401 105.76 95.8101 103.72 93.7701C100.634 90.8649 96.6982 89.025 92.49 88.5201C91.2439 88.3364 89.972 88.453 88.78 88.8601C83.47 90.7201 78.91 94.3901 79.89 103.24C80.97 112.99 88.56 115.43 88.56 115.43L89.1 121.43L96.68 124.95L96.95 118.45C96.95 118.45 102.09 120.61 103.95 120.34C105.81 120.07 106.39 117.63 107.2 114.11C107.497 112.504 107.645 110.874 107.64 109.24L109.91 106.98C111.2 105.67 109.93 105.35 108.34 104.39Z" fill="white" stroke="#263238" stroke-linecap="round" stroke-linejoin="round"/>
<path d="M79.8701 103.24C78.8701 94.3901 83.4501 90.7201 88.7601 88.8601C89.952 88.453 91.224 88.3364 92.4701 88.5201C95.339 88.9037 98.1009 89.8628 100.59 91.3401C99.07 91.0301 101.66 95.5001 99.28 98.3401C97.1959 100.977 94.5387 103.104 91.5101 104.56C91.5101 104.56 88.81 102.39 87.99 105.37C87.17 108.35 87.4501 110.51 89.6201 111.06C91.7901 111.61 92.6201 111.06 92.6201 111.06C92.6201 111.06 91.1801 114.47 88.6201 115.88V115.39C88.6201 115.39 81.0001 113 79.8701 103.24Z" fill="#263238" stroke="#263238" stroke-linecap="round" stroke-linejoin="round"/>
<path d="M100.55 123.19L99.1 131.07L83.64 122.9L85.1 115.61L100.55 123.19ZM93.08 189.63C94.681 189.973 96.3057 190.193 97.94 190.29C99.21 190.21 100.94 188.78 102.22 189.39C103.5 190 105.29 193.85 105.29 193.85C105.29 193.85 106.99 194.71 106.5 195.62C106.01 196.53 103.91 197.37 103.91 197.37C103.91 197.37 101.91 199.26 100.75 199.45C99.59 199.64 92.52 194.45 92.52 194.45L93.08 189.63Z" fill="white" stroke="#263238" stroke-linecap="round" stroke-linejoin="round"/>
<path d="M93.83 193.37C94.0641 193.089 94.2323 192.759 94.3221 192.404C94.412 192.05 94.4213 191.679 94.3494 191.321C94.2775 190.962 94.1261 190.624 93.9065 190.332C93.6868 190.039 93.4044 189.799 93.08 189.63L73.65 171.43L94.81 138.53C95.7542 136.791 95.9834 134.752 95.4491 132.846C94.9149 130.94 93.6591 129.317 91.9483 128.322C90.2375 127.327 88.2062 127.037 86.2855 127.515C84.3647 127.992 82.7056 129.2 81.66 130.88L63.32 167.33C62.3665 168.256 61.8152 169.519 61.7852 170.847C61.7553 172.176 62.2491 173.463 63.16 174.43L63.23 174.5C65.07 177.34 85.31 192.19 91.23 194.13C91.6899 194.276 92.1827 194.281 92.6458 194.146C93.1088 194.011 93.521 193.741 93.83 193.37Z" fill="white" stroke="#263238" stroke-linecap="round" stroke-linejoin="round"/>
<path d="M170.71 143C170.71 143 173.22 150.77 173.22 152.28C173.202 153.37 173.118 154.459 172.97 155.54L175.18 158.97C175.31 159.19 175.35 159.452 175.292 159.702C175.234 159.951 175.083 160.169 174.87 160.31L171.46 162.31C171.46 162.31 170.96 170.31 170.46 171.31C169.96 172.31 161.46 172.07 161.46 172.07L158.7 177.33L144.4 171.82L148.16 161.53L147.38 146C147.38 146 156.16 138.24 170.71 143Z" fill="white" stroke="#263238" stroke-linecap="round" stroke-linejoin="round"/>
<path d="M160.92 161.9C160.92 161.9 158.43 164.24 156.56 164.4C154.69 164.56 148.61 163.15 148.14 162.53C147.67 161.91 143.47 153.18 143.62 148.97C143.77 144.76 143.94 138.53 148.45 136.51C152.96 134.49 160.14 135.1 163.88 132.77C167.62 130.44 173.54 128.56 176.66 132.61C179.78 136.66 177.44 142.27 174.95 144.61C172.46 146.95 169.34 147.61 169.65 148.61C169.96 149.61 171.83 150.79 170.74 152.35C169.65 153.91 165.74 155.35 165.74 155.93C165.74 156.51 166.68 158.74 165.59 159.05C164.5 159.36 163.4 156.87 162.31 156.87C161.22 156.87 158.9 159.88 160.92 161.9Z" fill="#263238" stroke="#263238" stroke-linecap="round" stroke-linejoin="round"/>
<path d="M154.41 154.75C153.961 155.253 153.578 155.81 153.27 156.41M174.89 138.6C174.692 140.316 174.067 141.956 173.071 143.367C172.075 144.779 170.741 145.918 169.19 146.68C165.19 148.75 159.86 150.44 156.32 153.04M169.65 148.66C169.65 148.66 166.1 151.66 162.3 154.75C159.707 156.757 156.824 158.359 153.75 159.5" stroke="white" stroke-width="0.5" stroke-linecap="round" stroke-linejoin="round"/>
<path d="M160.67 162.32L162.67 162.82C162.549 163.755 162.62 164.705 162.88 165.611C163.14 166.517 163.582 167.361 164.18 168.09" fill="white"/>
<path d="M160.67 162.32L162.67 162.82C162.549 163.755 162.62 164.705 162.88 165.611C163.14 166.517 163.582 167.361 164.18 168.09" stroke="#263238" stroke-linecap="round" stroke-linejoin="round"/>
<path d="M162.99 156.95L177.11 153.45M173.48 153.17L176.7 153.31C176.7 153.31 177.81 156.95 174.46 157.37" stroke="#263238" stroke-linecap="round" stroke-linejoin="round"/>
<path d="M159.24 326.06C159.24 326.06 172.24 334.27 174.53 334.27C176.82 334.27 177.96 336.33 176.82 336.56C175.68 336.79 168.6 337.01 163.82 337.24C159.04 337.47 155.82 337.01 153.09 337.01C150.36 337.01 147.15 337.24 145.78 336.56C144.41 335.88 146.7 328.11 146.7 326.74C146.7 325.37 157.64 325.14 159.24 326.06Z" fill="#263238" stroke="#263238" stroke-linecap="round" stroke-linejoin="round"/>
<path d="M176 334.61C170.95 336.27 162.76 335.18 157.84 334.73C153.95 334.38 147.84 334.3 145.35 334.28C145.25 335.45 145.35 336.34 145.74 336.56C147.11 337.24 150.31 337.01 153.05 337.01C155.79 337.01 158.98 337.47 163.78 337.24C168.58 337.01 175.65 336.78 176.78 336.56C177.67 336.38 177.25 335.2 176 334.61Z" fill="white" stroke="#263238" stroke-linecap="round" stroke-linejoin="round"/>
<path d="M169.51 269.66L159.25 321.11L161.39 326.45C159.854 328.674 157.537 330.237 154.9 330.83C151.968 331.406 148.989 331.714 146 331.75C146 331.75 144.86 326.04 145.55 325.35C146.24 324.66 146.46 321.93 146.46 321.93L152.39 270.11L169.51 269.66Z" fill="#414141" stroke="#263238" stroke-linecap="round" stroke-linejoin="round"/>
<path d="M200.78 324.32C200.78 324.32 208.78 330.94 212.43 332.08C216.08 333.22 219.96 334.36 219.96 335.5C219.96 336.64 211.29 337.78 204.67 337.1C198.05 336.42 188 333.45 185.72 333.45C183.44 333.45 183.89 327.51 183.89 326.6C183.89 325.69 195.08 318.38 200.78 324.32Z" fill="#263238" stroke="#263238" stroke-linecap="round" stroke-linejoin="round"/>
<path d="M220 335.5C220 335.09 219.49 334.68 218.68 334.27C212.146 335.144 205.521 335.097 199 334.13C192.43 333.19 186.93 331.93 184.12 331.23C184.36 332.46 184.83 333.45 185.76 333.45C188.04 333.45 198.09 336.45 204.71 337.1C211.33 337.75 220 336.64 220 335.5Z" fill="white" stroke="#263238" stroke-linecap="round" stroke-linejoin="round"/>
<path d="M161.07 246.6C167.915 246.076 174.795 246.23 181.61 247.06C193.25 248.43 219.26 250.06 219.71 253C220.16 255.94 199.53 317.73 199.53 319.32C199.53 320.91 201.35 322.52 201.81 323.43C202.1 324.079 202.257 324.779 202.27 325.49C202.27 325.49 196.68 331.49 192.34 333.12C188 334.75 184.34 333.22 183.44 333.22C182.54 333.22 182.53 327.06 183.22 324.09C183.91 321.12 185.04 313.59 185.27 312.91C185.5 312.23 198 268.29 198 268.29C198 268.29 164 273.77 143.69 271.48C123.38 269.19 121.32 266.01 120.18 261.21C119.04 256.41 121.32 246.83 121.32 246.83L161.07 246.6Z" fill="#414141" stroke="#263238" stroke-linecap="round" stroke-linejoin="round"/>
<path d="M158.5 261.39C158.039 262.057 157.524 262.686 156.96 263.27M164.72 249.11C163.408 252.396 161.895 255.599 160.19 258.7M162 251.4C159.246 255.944 155.075 259.457 150.13 261.4" stroke="#263238" stroke-linecap="round" stroke-linejoin="round"/>
<path d="M213.82 264C214.6 263.7 215.35 263.39 216.06 263.07ZM198 268.29C202.393 267.442 206.733 266.343 211 265ZM224.39 192.48C224.87 190.57 225.67 190.72 225.03 190.09C224.15 189.21 223.44 190.25 220.89 191.68C218.34 193.11 215.8 194.86 215.8 194.86C215.856 194.329 216.076 193.829 216.43 193.43C217.075 192.375 217.42 191.166 217.43 189.93C217.43 188.93 216.63 189.13 216.31 190.09C215.99 191.05 213.13 192.79 212.97 193.59C212.81 194.39 212.24 197.53 212.24 197.53C211.33 198.9 211.33 205.29 211.33 205.29L192.8 219.21L183.44 230.21C183.44 230.21 187.55 236.83 189.83 235.92C192.11 235.01 193.25 234.09 198.73 229.52C203.37 225.65 215 207.8 215 207.8C217.026 206.528 218.942 205.089 220.73 203.5C222.792 201.167 224.011 198.208 224.19 195.1C224.147 194.222 224.214 193.341 224.39 192.48ZM138.65 171.36C138.65 171.36 140.41 164.76 147.89 166.08C155.37 167.4 161.09 173.56 162.41 175.76C163.73 177.96 138.21 174.88 138.21 174.88L138.65 171.36Z" fill="white"/>
<path d="M213.82 264C214.6 263.7 215.35 263.39 216.06 263.07M198 268.29C202.393 267.442 206.733 266.343 211 265M224.39 192.48C224.87 190.57 225.67 190.72 225.03 190.09C224.15 189.21 223.44 190.25 220.89 191.68C218.34 193.11 215.8 194.86 215.8 194.86C215.856 194.329 216.076 193.829 216.43 193.43C217.075 192.375 217.42 191.166 217.43 189.93C217.43 188.93 216.63 189.13 216.31 190.09C215.99 191.05 213.13 192.79 212.97 193.59C212.81 194.39 212.24 197.53 212.24 197.53C211.33 198.9 211.33 205.29 211.33 205.29L192.8 219.21L183.44 230.21C183.44 230.21 187.55 236.83 189.83 235.92C192.11 235.01 193.25 234.09 198.73 229.52C203.37 225.65 215 207.8 215 207.8C217.026 206.528 218.942 205.089 220.73 203.5C222.792 201.167 224.011 198.208 224.19 195.1C224.147 194.222 224.214 193.341 224.39 192.48ZM138.65 171.36C138.65 171.36 140.41 164.76 147.89 166.08C155.37 167.4 161.09 173.56 162.41 175.76C163.73 177.96 138.21 174.88 138.21 174.88L138.65 171.36Z" stroke="#263238" stroke-linecap="round" stroke-linejoin="round"/>
<path d="M181.77 229C181.77 229 180.03 230.88 181.77 233.84C182.96 235.89 185.06 237.46 189.08 236.77C192.84 236.11 198.49 226.77 198.49 220.2C198.49 213.63 193.65 213.2 191.89 214.48C190.13 215.76 181.77 229 181.77 229Z" fill="white" stroke="#263238" stroke-linecap="round" stroke-linejoin="round"/>
<path d="M141.89 170.59C141.89 170.59 124.09 179.04 121.58 180.59C119.07 182.14 117.47 202.04 117.47 205.47C117.47 208.9 119.98 242.47 120.66 248.15C121.34 253.83 143.26 257.74 150.57 255.68C157.88 253.62 165 248.43 165 246.6C165 244.77 164.31 229.26 164.77 226.29C165.23 223.32 169.33 210.77 169.33 210.77L181.79 230.65C181.79 230.65 183.1 233.09 187.73 231.17C194.35 228.43 194.9 217.84 194.9 217.84C194.9 217.84 187.6 205.06 185.54 198.67C183.48 192.28 182.54 187.48 181.66 186.34C180.78 185.2 160.2 175.61 156.55 173.1C154.483 171.543 152.075 170.503 149.524 170.067C146.974 169.63 144.357 169.81 141.89 170.59Z" fill="white" stroke="#263238" stroke-linecap="round" stroke-linejoin="round"/>
<path d="M169.28 210.77L163.35 202.09M168.32 209.53L157.87 204.38" stroke="#263238" stroke-linecap="round" stroke-linejoin="round"/>
<path d="M137.35 275L146.47 339.82C146.491 339.97 146.543 340.114 146.623 340.243C146.703 340.372 146.809 340.483 146.934 340.568C147.059 340.654 147.201 340.713 147.35 340.74C147.499 340.768 147.652 340.765 147.8 340.73C148.056 340.666 148.282 340.514 148.436 340.299C148.59 340.085 148.662 339.823 148.64 339.56L142.21 273.93L137.35 275ZM111.15 275.51L95.91 339.17C95.8752 339.317 95.8715 339.471 95.8993 339.62C95.927 339.769 95.9856 339.91 96.0713 340.036C96.1569 340.161 96.2678 340.267 96.3967 340.347C96.5256 340.427 96.6698 340.479 96.82 340.5C97.0808 340.539 97.3467 340.481 97.5678 340.337C97.7888 340.193 97.9497 339.974 98.02 339.72L115.72 277.94L111.15 275.51Z" fill="#263238" stroke="#263238" stroke-linecap="round" stroke-linejoin="round"/>
<path d="M138.83 274.72L129.13 339.45C129.108 339.599 129.116 339.751 129.155 339.897C129.194 340.043 129.262 340.179 129.356 340.297C129.45 340.415 129.567 340.513 129.7 340.584C129.833 340.655 129.98 340.698 130.13 340.71C130.393 340.724 130.652 340.643 130.86 340.481C131.068 340.32 131.21 340.088 131.26 339.83L143.57 276.75L138.83 274.72ZM173.17 275L182.29 339.82C182.311 339.97 182.363 340.114 182.443 340.243C182.523 340.372 182.629 340.483 182.754 340.568C182.879 340.654 183.021 340.713 183.17 340.74C183.319 340.768 183.472 340.765 183.62 340.73C183.876 340.666 184.102 340.514 184.256 340.299C184.409 340.085 184.482 339.823 184.46 339.56L178 273.91L173.17 275Z" fill="#263238" stroke="#263238" stroke-linecap="round" stroke-linejoin="round"/>
<path d="M96.72 207.73L107.82 279.9H186.76C186.76 279.9 187.93 259.1 184.45 251.75C180.97 244.4 138 260.16 136.45 259.75C135.3 259.46 137 222.2 139.11 207.64C139.258 206.615 139.183 205.57 138.892 204.576C138.6 203.583 138.098 202.664 137.42 201.881C136.742 201.099 135.903 200.471 134.961 200.041C134.019 199.611 132.995 199.389 131.96 199.39H103.86C102.816 199.389 101.785 199.614 100.837 200.05C99.889 200.485 99.0466 201.122 98.3679 201.914C97.6893 202.707 97.1906 203.637 96.9061 204.641C96.6216 205.645 96.5581 206.699 96.72 207.73Z" fill="#414141" stroke="#263238" stroke-linecap="round" stroke-linejoin="round"/>
<path d="M184.45 251.75C180.97 244.4 138 260.16 136.45 259.75C135.3 259.46 137 222.2 139.11 207.64C139.294 206.628 139.254 205.588 138.99 204.594C138.727 203.599 138.248 202.675 137.587 201.887C136.926 201.099 136.1 200.466 135.167 200.034C134.234 199.601 133.216 199.38 132.188 199.385C131.159 199.39 130.145 199.622 129.216 200.064C128.287 200.506 127.467 201.147 126.814 201.942C126.161 202.737 125.692 203.666 125.439 204.663C125.186 205.659 125.155 206.7 125.35 207.71L136.45 279.88H186.76C186.76 279.88 187.93 259.1 184.45 251.75Z" fill="#263238" stroke="#263238" stroke-linecap="round" stroke-linejoin="round"/>
<path d="M224.39 192.48C224.39 192.48 223.12 193.75 221.21 195.98ZM224.19 195.06C224.19 195.06 222.64 198.21 221.69 199.64Z" fill="white"/>
<path d="M224.39 192.48C224.39 192.48 223.12 193.75 221.21 195.98M224.19 195.06C224.19 195.06 222.64 198.21 221.69 199.64" stroke="#263238" stroke-linecap="round" stroke-linejoin="round"/>
<path d="M10.3599 231.54C12.0199 232.26 16.0699 232.17 16.0799 232.17C16.0899 232.17 15.2099 229.52 15.1299 229.36C14.2399 227.49 11.4199 224.42 9.12994 224.73C8.75086 224.792 8.38907 224.933 8.06823 225.144C7.74738 225.355 7.4747 225.632 7.26801 225.956C7.06131 226.279 6.92525 226.643 6.86872 227.023C6.81219 227.403 6.83646 227.79 6.93994 228.16C7.31994 229.74 8.93994 230.92 10.3599 231.54Z" fill="#263238"/>
<path d="M63.51 217.73C61.21 217.48 58.51 220.63 57.64 222.52C57.57 222.68 56.73 225.36 56.77 225.36C56.33 225.85 55.87 226.36 55.38 226.98C54.48 228.08 53.48 229.34 52.47 230.78C51.3821 232.324 50.3806 233.926 49.47 235.58C48.4436 237.435 47.5803 239.376 46.89 241.38C46.8943 241.403 46.8943 241.427 46.89 241.45V238.74C46.62 236.69 44.89 232.89 42.63 232.47C42.2535 232.409 41.8684 232.428 41.4996 232.525C41.1308 232.622 40.7865 232.796 40.4887 233.034C40.191 233.273 39.9466 233.571 39.7711 233.909C39.5956 234.248 39.493 234.619 39.47 235C39.33 236.63 40.47 238.26 41.66 239.28C42.96 240.44 46.56 241.56 46.85 241.65C46.1961 243.729 45.6882 245.851 45.33 248C45.1 249.24 44.92 250.49 44.75 251.75V250.57C44.49 248.52 42.75 244.72 40.5 244.3C40.1205 244.241 39.7328 244.262 39.362 244.362C38.9913 244.462 38.6457 244.639 38.3477 244.882C38.0497 245.124 37.8061 245.426 37.6324 245.769C37.4588 246.111 37.3592 246.487 37.34 246.87C37.21 248.5 38.34 250.13 39.54 251.16C40.74 252.19 43.75 253.22 44.54 253.47C44.48 253.96 44.41 254.47 44.35 254.92C44.08 257.24 43.81 259.56 43.48 261.82C43.36 262.62 43.22 263.4 43.08 264.18V263.18C42.81 261.13 41.08 257.33 38.82 256.91C38.4405 256.852 38.053 256.875 37.6828 256.976C37.3126 257.078 36.9678 257.256 36.6708 257.499C36.3738 257.742 36.1312 258.045 35.9588 258.388C35.7864 258.731 35.688 259.107 35.67 259.49C35.54 261.11 36.67 262.74 37.87 263.77C39.3631 264.757 40.9988 265.509 42.72 266C42.55 266.8 42.38 267.59 42.18 268.36C42.03 268.88 41.93 269.36 41.75 269.9C41.57 270.44 41.42 270.9 41.26 271.42C40.91 272.37 40.56 273.36 40.2 274.28C39.95 274.93 39.7 275.54 39.46 276.15C39.58 275.36 39.79 273.8 39.8 273.67C39.7718 271.853 39.2795 270.073 38.37 268.5C38.3948 268.301 38.3948 268.099 38.37 267.9C38.3246 267.515 38.1979 267.144 37.9981 266.812C37.7983 266.48 37.5301 266.194 37.2113 265.974C36.8925 265.754 36.5304 265.604 36.1491 265.534C35.7678 265.464 35.3761 265.477 35 265.57C32.76 266.16 31.35 270.08 31.24 272.14C31.24 272.26 31.32 273.59 31.38 274.43C31.27 273.94 31.16 273.43 31.04 272.97C30.81 271.97 30.54 270.97 30.27 269.97C30.11 269.46 29.96 268.97 29.8 268.44C29.64 267.91 29.44 267.44 29.26 266.88C28.82 265.67 28.32 264.47 27.78 263.27C28.64 263.06 31.7 262.27 32.93 261.34C34.16 260.41 35.45 258.86 35.44 257.23C35.4519 256.842 35.3808 256.456 35.2314 256.097C35.0821 255.738 34.8579 255.416 34.574 255.151C34.29 254.886 33.9528 254.684 33.5848 254.56C33.2168 254.436 32.8265 254.392 32.44 254.43C30.14 254.68 28.14 258.34 27.73 260.36C27.73 260.49 27.56 261.97 27.5 262.79C27.18 262.07 26.85 261.35 26.5 260.63C25.5 258.57 24.36 256.5 23.27 254.44L22.27 252.54C22.58 252.47 26.27 251.63 27.61 250.54C28.95 249.45 30.13 248.07 30.12 246.43C30.1302 246.042 30.058 245.657 29.9081 245.299C29.7582 244.941 29.5341 244.619 29.2505 244.355C28.9669 244.09 28.6303 243.888 28.263 243.764C27.8958 243.639 27.5061 243.593 27.12 243.63C24.82 243.88 22.83 247.54 22.41 249.56C22.41 249.72 22.18 251.85 22.16 252.4C21.44 251.01 20.73 249.61 20.09 248.21C19.2114 246.318 18.4564 244.37 17.83 242.38C17.97 242.38 21.83 241.48 23.21 240.38C24.43 239.44 25.73 237.9 25.71 236.27C25.7219 235.882 25.6508 235.496 25.5014 235.137C25.3521 234.778 25.1279 234.456 24.844 234.191C24.56 233.926 24.2228 233.724 23.8548 233.6C23.4868 233.476 23.0965 233.432 22.71 233.47C20.41 233.72 18.42 237.38 18 239.4C18 239.56 17.76 241.86 17.75 242.28C17.75 242.16 17.67 242.05 17.63 241.93C17.0616 239.918 16.6701 237.86 16.46 235.78C16.3491 234.673 16.2758 233.562 16.24 232.45C16.97 232.36 20.24 231.92 21.67 231.09C23.1 230.26 24.45 228.9 24.67 227.28C24.722 226.9 24.6935 226.512 24.5862 226.144C24.479 225.775 24.2954 225.433 24.0474 225.14C23.7995 224.846 23.4926 224.608 23.1468 224.441C22.8009 224.274 22.4238 224.182 22.04 224.17C19.72 224.17 17.34 227.59 16.7 229.55C16.7 229.66 16.44 230.78 16.28 231.6V230.15C16.28 228.4 16.39 226.8 16.5 225.39C16.57 224.58 16.65 223.85 16.73 223.17C17.4 222.71 20.07 220.83 20.89 219.48C21.71 218.13 22.35 216.26 21.75 214.74C21.6212 214.379 21.4178 214.049 21.153 213.772C20.8883 213.495 20.5682 213.277 20.2135 213.131C19.8588 212.986 19.4775 212.917 19.0944 212.929C18.7113 212.941 18.335 213.033 17.99 213.2C15.93 214.26 15.39 218.39 15.73 220.43C15.73 220.6 16.54 223.3 16.57 223.28C16.48 223.93 16.39 224.63 16.31 225.4C16.17 226.82 16.03 228.4 15.98 230.18C15.9197 232.068 15.9664 233.958 16.12 235.84C16.2673 237.952 16.6019 240.047 17.12 242.1C17.1243 242.123 17.1243 242.147 17.12 242.17C16.76 241.6 15.69 240.04 15.59 239.93C14.24 238.37 10.71 236.14 8.58998 237.05C8.24043 237.209 7.92823 237.439 7.67376 237.726C7.41929 238.014 7.22826 238.351 7.11313 238.718C6.99801 239.084 6.96138 239.47 7.00564 239.851C7.04989 240.233 7.17404 240.6 7.36997 240.93C8.15997 242.36 10.04 243.07 11.57 243.29C13.29 243.54 16.91 242.49 17.2 242.41C17.7948 244.483 18.5264 246.514 19.39 248.49C19.89 249.64 20.39 250.79 20.98 251.93C20.65 251.44 20.35 251.01 20.31 250.93C18.96 249.37 15.43 247.14 13.31 248.05C12.9663 248.225 12.6637 248.471 12.422 248.772C12.1803 249.072 12.005 249.421 11.9077 249.794C11.8104 250.167 11.7932 250.557 11.8574 250.937C11.9216 251.317 12.0656 251.68 12.28 252C13.06 253.43 14.95 254.14 16.47 254.36C17.99 254.58 21.12 253.76 21.94 253.52C22.16 253.96 22.37 254.4 22.59 254.83C23.59 256.92 24.7 259 25.67 261.07C26.01 261.8 26.32 262.53 26.67 263.26L26.08 262.42C24.73 260.86 21.2 258.64 19.08 259.54C18.731 259.701 18.4196 259.933 18.1661 260.221C17.9126 260.51 17.7227 260.849 17.6086 261.216C17.4945 261.582 17.4588 261.969 17.5038 262.351C17.5488 262.732 17.6736 263.1 17.87 263.43C18.66 264.86 20.54 265.57 22.06 265.79C23.8671 265.797 25.6646 265.528 27.39 264.99C27.69 265.75 27.99 266.51 28.24 267.25C28.41 267.77 28.6 268.25 28.73 268.78C28.86 269.31 29.02 269.78 29.16 270.32C29.4 271.32 29.65 272.32 29.86 273.32C30.01 273.99 30.14 274.64 30.27 275.32C29.93 274.59 29.27 273.17 29.18 273.06C28.08 271.31 24.93 268.58 22.69 269.15C22.3214 269.257 21.9792 269.439 21.6857 269.686C21.3921 269.933 21.1538 270.239 20.986 270.584C20.8182 270.929 20.7247 271.306 20.7116 271.689C20.6985 272.073 20.7661 272.455 20.91 272.81C21.47 274.34 23.22 275.33 24.69 275.81C26.32 276.3 29.91 275.81 30.36 275.81C30.58 276.88 30.77 277.93 30.95 278.92C31.55 282.35 31.95 285.24 32.16 287.25C32.16 287.61 32.24 287.93 32.27 288.25H25.27L27.81 337.82H39.67L42.21 288.25H35.72L35.87 287.96C36.76 286.1 37.99 283.44 39.32 280.18C39.75 279.18 40.18 278.05 40.61 276.91C41.05 277 44.61 277.72 46.26 277.34C47.77 277 49.59 276.15 50.26 274.67C50.431 274.326 50.5274 273.95 50.543 273.566C50.5586 273.182 50.493 272.799 50.3505 272.442C50.2079 272.086 49.9917 271.763 49.7159 271.495C49.4401 271.228 49.111 271.022 48.75 270.89C46.56 270.15 43.22 272.64 41.99 274.3C41.92 274.4 41.25 275.55 40.84 276.3L41.37 274.9C41.72 273.95 42.04 272.98 42.37 271.95L42.82 270.42C42.99 269.91 43.1 269.36 43.24 268.82C43.53 267.57 43.77 266.29 43.99 264.99C44.82 265.29 47.81 266.33 49.35 266.22C50.89 266.11 52.82 265.55 53.71 264.22C53.9356 263.904 54.0916 263.544 54.1676 263.164C54.2436 262.783 54.2379 262.391 54.151 262.013C54.064 261.635 53.8977 261.279 53.6631 260.97C53.4284 260.661 53.1308 260.406 52.79 260.22C50.79 259.22 47.05 261.12 45.59 262.57C45.5 262.67 44.59 263.83 44.07 264.48C44.19 263.7 44.31 262.92 44.41 262.12C44.7 259.83 44.91 257.5 45.14 255.18C45.21 254.47 45.29 253.76 45.36 253.05C45.66 253.16 49.18 254.47 50.91 254.35C52.44 254.24 54.37 253.68 55.26 252.35C55.4856 252.034 55.6416 251.674 55.7176 251.294C55.7936 250.913 55.7879 250.521 55.701 250.143C55.614 249.765 55.4477 249.409 55.2131 249.1C54.9784 248.791 54.6808 248.536 54.34 248.35C52.34 247.3 48.61 249.25 47.14 250.7C47.03 250.81 45.69 252.49 45.37 252.93C45.54 251.37 45.72 249.82 45.96 248.29C46.2679 246.23 46.7122 244.192 47.29 242.19C47.43 242.19 51.09 243.62 52.87 243.5C54.4 243.39 56.33 242.82 57.22 241.5C57.4472 241.185 57.6045 240.825 57.6814 240.444C57.7583 240.063 57.753 239.67 57.666 239.292C57.5789 238.913 57.412 238.557 57.1764 238.248C56.9408 237.94 56.642 237.684 56.3 237.5C54.3 236.44 50.57 238.39 49.1 239.85C48.99 239.96 47.55 241.77 47.31 242.11L47.4 241.76C48.0349 239.766 48.8447 237.832 49.82 235.98C50.35 234.98 50.91 233.98 51.47 233.08C52.13 233.41 55.15 234.88 56.75 234.94C58.35 235 60.27 234.65 61.31 233.39C61.5571 233.103 61.7418 232.767 61.8521 232.405C61.9625 232.042 61.9962 231.661 61.951 231.284C61.9059 230.908 61.7829 230.545 61.5899 230.219C61.3969 229.893 61.1381 229.611 60.83 229.39C58.9 228.11 55.03 229.64 53.42 230.93C53.33 231 52.51 231.81 51.93 232.41C52.19 232 52.45 231.57 52.71 231.19C53.71 229.73 54.65 228.46 55.53 227.33C56.03 226.7 56.53 226.14 56.94 225.62C57.75 225.62 61.02 225.5 62.45 224.83C63.88 224.16 65.45 222.95 65.78 221.36C65.9183 220.972 65.967 220.558 65.9225 220.149C65.878 219.739 65.7415 219.345 65.5232 218.996C65.3048 218.647 65.0103 218.352 64.6616 218.132C64.313 217.913 63.9193 217.776 63.51 217.73ZM38.06 279.48C36.67 282.68 35.39 285.29 34.48 287.1L33.97 288.1H33.82C33.82 287.75 33.72 287.36 33.66 286.93C33.38 284.93 32.94 281.99 32.25 278.54C32.04 277.45 31.79 276.29 31.52 275.1C32.6008 274.664 33.6558 274.166 34.68 273.61C36.0711 274.818 37.6225 275.827 39.29 276.61C38.88 277.58 38.46 278.56 38.06 279.48Z" fill="#263238"/>
<path d="M51.4 232.43C51.4 232.43 52.14 229.74 52.16 229.56C52.45 227.51 51.8 223.4 49.71 222.39C49.3627 222.235 48.9869 222.154 48.6064 222.151C48.226 222.149 47.8492 222.226 47.5002 222.378C47.1512 222.529 46.8376 222.752 46.5793 223.031C46.321 223.31 46.1237 223.64 46 224C45.44 225.53 46.15 227.41 47 228.71C48 230.27 51.4 232.43 51.4 232.43Z" fill="#263238"/>
<path d="M21.1801 337.58H427.93V342.56H21.1801V337.58Z" fill="#263238"/>
</svg>
