<svg width="500" height="370" viewBox="0 0 500 370" fill="none" xmlns="http://www.w3.org/2000/svg">
<path d="M397.83 110.78C423.06 161.05 415.08 224.51 383.54 271.08C352 317.65 299.54 347.81 244.39 358.79C205 366.63 162.65 365 126.67 347.22C90.69 329.44 62.4 293.55 60.24 253.46C59.42 238.32 62.63 222.24 72.74 210.93C88.88 192.87 116.42 192.24 140.63 192.93C164.84 193.62 192.36 193.11 208.63 175.13C221.08 161.31 222.92 141.26 229.48 123.86C240.65 94.2502 267.58 71.1402 298.53 64.6002C302.814 63.6934 307.159 63.1018 311.53 62.8302C345.53 60.7002 377.86 78.2202 395.72 107.28L397.83 110.78Z" fill="#F5F5F5"/>
<path d="M362.8 345.65L363.91 346.05C364.63 346.33 365.73 346.7 367.19 347.11C371.452 348.299 375.886 348.749 380.3 348.44C383.486 348.22 386.646 347.711 389.74 346.92C393.427 346.016 397.02 344.764 400.47 343.18C408.861 339.212 416.317 333.514 422.35 326.46C424.099 324.51 425.457 322.242 426.35 319.78C427.262 317.202 427.125 314.369 425.97 311.89C425.326 310.658 424.362 309.622 423.18 308.89C421.962 308.147 420.597 307.676 419.18 307.51C416.242 307.159 413.265 307.645 410.59 308.91C409.179 309.527 407.725 310.042 406.24 310.45C404.69 310.855 403.057 310.813 401.53 310.33C400.732 310.102 400.004 309.679 399.41 309.1C398.817 308.52 398.377 307.802 398.13 307.01C397.938 306.198 397.921 305.354 398.082 304.534C398.242 303.715 398.576 302.94 399.06 302.26C400.017 300.881 401.34 299.797 402.88 299.13C404.396 298.459 405.956 297.894 407.55 297.44C414.025 295.356 420.12 292.239 425.6 288.21C427.026 287.222 428.323 286.06 429.46 284.75C430.652 283.491 431.36 281.851 431.46 280.12C431.445 279.267 431.192 278.436 430.73 277.72C430.25 277 429.61 276.401 428.86 275.97C427.299 275.119 425.566 274.633 423.79 274.55C421.948 274.467 420.117 274.216 418.32 273.8C417.379 273.578 416.504 273.136 415.767 272.51C415.03 271.885 414.451 271.093 414.08 270.2C413.913 269.724 413.857 269.215 413.918 268.714C413.979 268.213 414.154 267.732 414.43 267.31C415.015 266.535 415.75 265.886 416.59 265.4C418.15 264.4 419.69 263.31 421.18 262.17C424.19 259.871 427.019 257.344 429.64 254.61C432.24 251.84 434.88 248.96 436.51 245.48C437.359 243.764 437.765 241.863 437.69 239.95C437.573 238.034 436.808 236.214 435.52 234.79C434.221 233.379 432.582 232.324 430.76 231.726C428.938 231.127 426.993 231.004 425.11 231.37C421.363 232.183 417.964 234.148 415.39 236.99C410.12 242.54 407.52 249.86 403.2 255.93C402.136 257.459 400.934 258.889 399.61 260.2C398.963 260.885 398.223 261.474 397.41 261.95C396.982 262.212 396.494 262.358 395.993 262.376C395.492 262.393 394.995 262.281 394.55 262.05C394.149 261.77 393.809 261.411 393.551 260.995C393.293 260.578 393.122 260.114 393.05 259.63C392.925 258.711 392.925 257.779 393.05 256.86C393.168 255.994 393.134 255.114 392.95 254.26C392.735 253.433 392.3 252.679 391.69 252.08C391.076 251.483 390.35 251.014 389.553 250.7C388.757 250.386 387.906 250.233 387.05 250.25C385.336 250.359 383.715 251.067 382.47 252.25C381.212 253.397 380.222 254.807 379.57 256.38C378.939 257.954 378.522 259.605 378.33 261.29C378.12 262.97 378.06 264.65 378 266.29C377.94 267.93 377.89 269.64 377.84 271.29C377.727 274.623 377.617 277.897 377.51 281.11C377.45 282.72 377.42 284.31 377.34 285.92C377.279 287.521 376.972 289.103 376.43 290.61C376.167 291.378 375.737 292.078 375.172 292.661C374.607 293.243 373.92 293.694 373.16 293.98C371.632 294.424 369.997 294.318 368.54 293.68C365.752 292.496 363.299 290.641 361.4 288.28C360.473 287.145 359.674 285.911 359.02 284.6C358.422 283.315 357.754 282.063 357.02 280.85C356.342 279.683 355.283 278.786 354.02 278.31C352.747 277.927 351.377 278.023 350.17 278.58C348.972 279.103 347.923 279.918 347.12 280.95C346.359 281.982 345.827 283.165 345.56 284.42C345.168 286.892 344.948 289.388 344.9 291.89C344.73 294.33 344.65 296.72 344.62 299.03C344.571 303.397 344.835 307.761 345.41 312.09C345.89 315.855 346.703 319.569 347.84 323.19C348.3 324.88 348.98 326.42 349.53 327.92C349.84 328.65 350.18 329.35 350.53 330.04C350.88 330.73 351.14 331.41 351.53 332.04C353.591 335.954 356.257 339.518 359.43 342.6C359.888 343.084 360.379 343.535 360.9 343.95L362.01 344.89L362.89 345.66L361.97 344.93L360.85 344.01C360.322 343.603 359.824 343.158 359.36 342.68C356.15 339.615 353.449 336.056 351.36 332.14C350.993 331.491 350.659 330.823 350.36 330.14C350.04 329.45 349.68 328.75 349.36 328.01C348.8 326.51 348.11 325.01 347.64 323.28C346.484 319.645 345.658 315.913 345.17 312.13C344.568 307.793 344.287 303.418 344.33 299.04C344.33 296.72 344.43 294.33 344.59 291.88C344.638 289.355 344.855 286.836 345.24 284.34C345.518 283.035 346.07 281.805 346.86 280.73C347.697 279.645 348.794 278.789 350.05 278.24C351.343 277.637 352.813 277.53 354.18 277.94C355.539 278.445 356.685 279.397 357.43 280.64C358.165 281.866 358.833 283.131 359.43 284.43C360.069 285.711 360.851 286.915 361.76 288.02C363.628 290.322 366.031 292.132 368.76 293.29C370.127 293.882 371.656 293.985 373.09 293.58C373.788 293.312 374.419 292.893 374.937 292.354C375.456 291.815 375.849 291.168 376.09 290.46C377.19 287.57 376.95 284.31 377.09 281.1C377.23 277.89 377.3 274.6 377.41 271.29C377.46 269.63 377.51 267.96 377.57 266.29C377.63 264.62 377.68 262.9 377.9 261.2C378.092 259.484 378.516 257.802 379.16 256.2C379.83 254.559 380.854 253.087 382.16 251.89C383.497 250.646 385.227 249.906 387.05 249.8C387.975 249.783 388.893 249.952 389.752 250.295C390.611 250.639 391.392 251.15 392.05 251.8C392.724 252.461 393.205 253.295 393.44 254.21C393.644 255.115 393.685 256.05 393.56 256.97C393.44 257.842 393.44 258.727 393.56 259.6C393.613 260.015 393.753 260.415 393.97 260.773C394.187 261.132 394.476 261.44 394.82 261.68C395.188 261.872 395.6 261.962 396.015 261.943C396.429 261.924 396.831 261.795 397.18 261.57C397.95 261.116 398.654 260.557 399.27 259.91C400.563 258.615 401.741 257.209 402.79 255.71C404.857 252.603 406.763 249.392 408.5 246.09C410.273 242.698 412.467 239.543 415.03 236.7C417.677 233.777 421.175 231.759 425.03 230.93C427.002 230.547 429.04 230.677 430.948 231.305C432.856 231.934 434.571 233.04 435.93 234.52C437.293 236.031 438.104 237.959 438.23 239.99C438.308 241.989 437.885 243.976 437 245.77C435.32 249.35 432.65 252.25 430 255.04C427.361 257.793 424.513 260.338 421.48 262.65C419.98 263.8 418.43 264.88 416.86 265.9C416.083 266.348 415.403 266.946 414.86 267.66C414.623 268.017 414.473 268.424 414.421 268.85C414.369 269.275 414.416 269.706 414.56 270.11C414.908 270.923 415.442 271.643 416.119 272.211C416.797 272.779 417.599 273.179 418.46 273.38C420.227 273.791 422.028 274.035 423.84 274.11C425.691 274.206 427.495 274.719 429.12 275.61C429.923 276.087 430.606 276.74 431.12 277.52C431.63 278.315 431.91 279.236 431.93 280.18C431.847 282.041 431.107 283.813 429.84 285.18C428.66 286.52 427.316 287.706 425.84 288.71C420.316 292.765 414.174 295.902 407.65 298C406.072 298.442 404.528 298.996 403.03 299.66C401.56 300.296 400.301 301.336 399.4 302.66C398.948 303.284 398.635 303.998 398.482 304.754C398.328 305.509 398.338 306.289 398.51 307.04C398.741 307.758 399.145 308.407 399.688 308.931C400.231 309.454 400.894 309.835 401.62 310.04C403.069 310.501 404.62 310.539 406.09 310.15C407.555 309.752 408.989 309.247 410.38 308.64C413.128 307.357 416.178 306.866 419.19 307.22C420.661 307.409 422.075 307.906 423.34 308.68C424.584 309.449 425.597 310.541 426.27 311.84C427.469 314.417 427.605 317.363 426.65 320.04C425.742 322.549 424.356 324.858 422.57 326.84C416.504 333.914 409.005 339.62 400.57 343.58C397.1 345.162 393.487 346.407 389.78 347.3C386.671 348.078 383.498 348.576 380.3 348.79C375.863 349.071 371.411 348.584 367.14 347.35C366.032 347.036 364.94 346.665 363.87 346.24L362.8 345.65Z" fill="#263238"/>
<path d="M368.39 333.45C372.093 322.799 376.404 312.368 381.3 302.21C382.58 299.51 383.85 296.83 385.11 294.21C386.37 291.59 387.6 288.98 388.98 286.5C391.629 281.757 394.537 277.164 397.69 272.74C400.69 268.5 403.69 264.58 406.48 260.94C409.27 257.3 412 253.94 414.59 251.02C418.655 246.361 423.082 242.031 427.83 238.07C429.51 236.67 430.83 235.62 431.76 234.93L432.81 234.14C432.926 234.046 433.049 233.962 433.18 233.89L432.85 234.19L431.85 235.02C430.96 235.75 429.65 236.82 427.99 238.25C423.315 242.273 418.946 246.638 414.92 251.31C412.36 254.26 409.69 257.61 406.92 261.25C404.15 264.89 401.16 268.83 398.19 273.07C395.063 277.483 392.179 282.064 389.55 286.79C388.18 289.25 386.95 291.84 385.7 294.47L381.9 302.47C377.008 312.606 372.691 323.009 368.97 333.63" fill="#263238"/>
<path d="M389.15 286.48C389.015 286.017 388.928 285.541 388.89 285.06C388.75 284.15 388.59 282.82 388.43 281.17C388.09 277.88 387.78 273.33 387.43 268.3C387.08 263.27 386.73 258.73 386.35 255.46C386.16 253.82 385.99 252.46 385.86 251.58C385.76 251.11 385.719 250.63 385.74 250.15C385.906 250.6 386.026 251.066 386.1 251.54C386.29 252.45 386.52 253.77 386.77 255.4C387.27 258.67 387.71 263.23 388.03 268.26C388.35 273.29 388.62 277.71 388.83 281.14C388.94 282.68 389.03 283.99 389.1 285.04C389.169 285.517 389.186 286 389.15 286.48Z" fill="#263238"/>
<path d="M431.69 280.22C431.132 280.317 430.566 280.361 430 280.35C428.91 280.41 427.34 280.48 425.39 280.63C421.51 280.9 416.16 281.45 410.28 282.33C405.07 283.11 400 284.04 395.28 285.09C393.38 285.51 391.85 285.88 390.79 286.09C390.245 286.256 389.686 286.373 389.12 286.44C389.634 286.188 390.174 285.994 390.73 285.86C391.73 285.54 393.29 285.1 395.19 284.63C398.97 283.63 404.27 282.57 410.19 281.68C415.221 280.913 420.287 280.406 425.37 280.16C427.32 280.06 428.9 280.06 429.99 280.08C430.56 280.065 431.13 280.112 431.69 280.22ZM368.94 332.69C368.826 332.53 368.735 332.355 368.67 332.17L368.01 330.61C367.44 329.26 366.66 327.28 365.74 324.82C363.89 319.9 361.55 313.03 359.07 305.41C356.59 297.79 354.31 290.9 352.56 285.96C351.71 283.55 351 281.57 350.48 280.1C350.26 279.46 350.07 278.94 349.92 278.5C349.842 278.318 349.788 278.126 349.76 277.93C349.877 278.091 349.968 278.27 350.03 278.46L350.7 280.01C351.27 281.37 352.04 283.35 352.96 285.81C354.81 290.72 357.16 297.6 359.64 305.22C362.12 312.84 365.39 320.82 367.14 325.77C367.99 328.18 367.7 329.05 368.22 330.52C368.45 331.16 368.63 331.69 368.78 332.12C368.857 332.302 368.91 332.494 368.94 332.69ZM425.76 316.78C425.579 316.872 425.388 316.943 425.19 316.99L423.54 317.47L417.46 319.18C412.32 320.63 405.25 322.72 397.46 325.03C390.15 327.19 383.35 329.15 377.38 330.7C374.8 331.38 372.7 331.9 371.24 332.23L369.56 332.6C369.368 332.657 369.17 332.687 368.97 332.69C369.15 332.595 369.341 332.524 369.54 332.48L371.19 332L377.27 330.29C382.41 328.84 389.48 326.75 397.27 324.44C405.06 322.13 412.18 320.11 417.35 318.77C419.93 318.09 422.03 317.57 423.48 317.24L425.16 316.87C425.355 316.812 425.557 316.782 425.76 316.78Z" fill="#263238"/>
<path d="M260.78 102.41C260.78 102.41 260.2 99.6299 259.23 91.5899L250.39 74.2599C250.39 74.2599 252.39 70.6299 256.9 78.3099C258.98 81.8099 265.9 80.3099 264.78 74.8499C263.66 69.3899 256.5 66.8499 252.12 72.2899C252.12 72.2899 249.29 72.5799 248.96 70.3699C248.63 68.1599 255.02 62.6999 260.46 64.2899C262.677 64.9879 264.722 66.1465 266.46 67.6899C266.46 67.6899 265.28 49.4699 266.76 49.3099C268.24 49.1499 270.29 50.3099 271.41 70.2399C271.41 70.2399 272.03 54.4699 272.34 52.4599C272.65 50.4499 275.34 49.0899 275.7 54.1399C275.7 54.6999 276.7 70.1999 276.7 70.1999C276.7 70.1999 278.47 59.9499 278.7 59.1299C279.2 56.9699 281.33 57.1999 281.54 60.0599C281.69 62.2299 282.39 71.4899 282.39 71.4899L283.73 99.9999H283.91" fill="#FFBE9D"/>
<path d="M289.06 93.0001L255.86 92.1401L252.56 172.48L215 156L214.94 156.13C212.68 155.13 210.71 154.23 209.66 153.65C188.91 142.34 175.29 140.96 153.02 148.91L110.36 165.99C102.1 169.88 80.61 173.47 73.24 207.45L72.24 211.51L106.38 236L129.79 297.7L157.79 359.46L222.24 357.37L255.92 315.37L227.34 260.78L209.58 199.64C222.13 207.97 245.42 219.31 273.31 213.4C303.56 207 289.06 93.0001 289.06 93.0001Z" fill="#414141"/>
<path opacity="0.3" d="M129.57 297.07C134.694 300.19 140.222 302.589 146 304.2C149.14 305.14 152.74 305.83 155.53 304.11C158.32 302.39 158.75 297.3 155.63 296.28L182.68 290.17C179.01 279.61 185.06 267.56 194.21 261.17C203.36 254.78 213.76 252.92 224.9 251.95L238.39 293.8L193.3 355.3L156.38 356.37L129.57 297.07Z" fill="black"/>
<path d="M115.42 239.26C115.42 239.26 98.51 276.26 102.42 294.7C104.58 305.02 138.35 313.83 159.87 316.46L153.42 352.58C153.42 352.58 73.42 344.97 58.47 313.3C49.97 295.3 58.58 251.3 74.77 201.5L115.42 239.26Z" fill="#414141"/>
<path d="M192.44 282.59C192.262 282.714 192.071 282.818 191.87 282.9L190.18 283.68C188.71 284.36 186.56 285.29 183.89 286.41C178.55 288.63 171.07 291.49 162.66 294.19C154.25 296.89 146.5 298.91 140.86 300.19C138.04 300.84 135.75 301.33 134.16 301.63L132.33 301.97C132.121 302.026 131.906 302.057 131.69 302.06C131.889 301.973 132.097 301.91 132.31 301.87L134.12 301.43C135.7 301.07 137.97 300.52 140.78 299.83C146.39 298.44 154.1 296.36 162.5 293.67C170.9 290.98 178.38 288.18 183.75 286.04C186.44 284.98 188.6 284.1 190.1 283.48L191.82 282.78C192.019 282.695 192.227 282.631 192.44 282.59ZM214.71 154.81C214.71 154.94 183.24 166.37 144.32 180.33C105.4 194.29 73.79 205.5 73.74 205.33C73.69 205.16 105.21 193.77 144.14 179.81C183.07 165.85 214.66 154.67 214.71 154.81Z" fill="white"/>
<path d="M107.2 258C107.217 257.924 107.244 257.85 107.28 257.78L107.54 257.16L108.54 254.77C109.42 252.69 110.67 249.66 111.94 245.83C113.436 241.338 114.462 236.704 115 232C115.663 226.256 115.242 220.439 113.76 214.85C112.305 209.247 109.433 204.112 105.42 199.94C102.083 196.6 97.9809 194.125 93.47 192.73C90.4256 191.801 87.2317 191.461 84.06 191.73L82.57 191.92C82.14 191.98 81.79 192.07 81.49 192.12L80.83 192.25H80.6C80.6 192.25 80.67 192.25 80.81 192.18L81.47 192C81.76 191.93 82.12 191.82 82.55 191.74L84.04 191.51C87.2416 191.158 90.4812 191.447 93.57 192.36C98.1687 193.72 102.358 196.201 105.76 199.58C109.851 203.798 112.78 209.003 114.26 214.69C115.76 220.341 116.174 226.225 115.48 232.03C114.907 236.753 113.834 241.403 112.28 245.9C111.238 248.923 110.05 251.893 108.72 254.8C108.24 255.8 107.86 256.62 107.59 257.15L107.28 257.76C107.25 257.91 107.21 258 107.2 258ZM187.55 146.48C187.75 146.54 187.941 146.624 188.12 146.73C188.657 146.997 189.175 147.301 189.67 147.64C191.506 148.881 193.136 150.403 194.5 152.15C196.501 154.756 198.099 157.649 199.24 160.73C200.599 164.489 201.758 168.318 202.71 172.2L208.28 193.2L209.9 199.59L210.32 201.33C210.382 201.531 210.419 201.74 210.43 201.95C210.338 201.762 210.267 201.564 210.22 201.36C210.09 200.91 209.92 200.36 209.71 199.64L207.92 193.3L202.21 172.3C201.11 168.2 200.1 164.3 198.79 160.86C197.683 157.813 196.141 154.944 194.21 152.34C192.892 150.597 191.325 149.058 189.56 147.77C188.3 146.91 187.52 146.52 187.55 146.48Z" fill="#263238"/>
<path d="M242.85 168L242.41 168.21L241.08 168.79L236 170.93C231.56 172.81 225.11 175.47 217.13 178.73C201.13 185.24 179.03 194.03 154.42 203.31C129.81 212.59 107.42 220.62 91.09 226.31C82.95 229.14 76.35 231.39 71.78 232.92L66.51 234.67L65.14 235.11L64.66 235.25L65.12 235.06L66.48 234.57L71.71 232.73L90.97 225.96C107.22 220.22 129.62 212.14 154.24 202.86C178.86 193.58 201 184.86 216.99 178.42L235.92 170.78L241.07 168.7L242.42 168.17L242.85 168ZM213.57 207.87L213.19 208.05L212.05 208.54L207.64 210.37C203.81 211.96 198.25 214.19 191.35 216.9C177.55 222.31 158.35 229.5 136.98 236.82C115.61 244.14 95.98 250.19 81.79 254.36C74.68 256.44 68.91 258.08 64.91 259.17L60.31 260.42L59.11 260.73C58.9766 260.773 58.8392 260.803 58.7 260.82C58.8262 260.763 58.9566 260.717 59.09 260.68L60.28 260.32L64.86 259C68.86 257.85 74.59 256.15 81.69 254C95.88 249.75 115.42 243.64 136.81 236.33C158.2 229.02 177.39 221.88 191.22 216.55C198.13 213.89 203.71 211.71 207.56 210.18L212.01 208.44L213.17 208L213.57 207.87ZM291.75 173.25C291.572 173.433 291.378 173.601 291.17 173.75L289.42 175.11C288.66 175.7 287.72 176.41 286.61 177.2C285.5 177.99 284.25 178.92 282.82 179.87C279.99 181.82 276.54 184.03 272.63 186.35C268.72 188.67 264.32 191.06 259.63 193.35C254.94 195.64 250.32 197.63 246.1 199.35C241.88 201.07 238 202.35 234.72 203.4C233.09 203.94 231.59 204.4 230.28 204.75C228.97 205.1 227.84 205.45 226.91 205.68L224.76 206.23C224.514 206.3 224.264 206.351 224.01 206.38C224.242 206.272 224.483 206.185 224.73 206.12L226.85 205.49C227.77 205.22 228.85 204.89 230.2 204.49C231.55 204.09 232.98 203.64 234.6 203.07C237.86 201.99 241.7 200.59 245.92 198.92C250.14 197.25 254.7 195.23 259.4 192.92C264.1 190.61 268.48 188.23 272.4 185.92C276.32 183.61 279.77 181.45 282.62 179.54C284.06 178.61 285.32 177.71 286.45 176.94C287.58 176.17 288.53 175.49 289.31 174.94L291.11 173.66C291.31 173.503 291.524 173.366 291.75 173.25ZM293.31 146.57C293.36 146.71 284.18 150.4 272.81 154.82C261.44 159.24 252.17 162.71 252.12 162.57C252.07 162.43 261.24 158.75 272.62 154.33C284 149.91 293.26 146.44 293.31 146.57ZM291.29 121.69C291.29 121.83 283.29 124.24 273.29 127.07C263.29 129.9 255.18 132.07 255.14 131.94C255.1 131.81 263.14 129.4 273.14 126.57C283.14 123.74 291.25 121.55 291.29 121.69ZM289.53 97.3501C289.53 97.4901 281.76 99.3501 272.11 101.44C262.46 103.53 254.62 105.17 254.59 105.03C254.56 104.89 262.35 103.03 272 100.94C281.65 98.8501 289.49 97.2101 289.53 97.3501ZM219.87 235.4C219.87 235.53 197.67 244.4 170.18 255.26C142.69 266.12 120.35 274.78 120.3 274.65C120.25 274.52 142.49 265.65 169.99 254.78C197.49 243.91 219.82 235.26 219.87 235.4ZM102.23 279.43C102.089 279.52 101.938 279.594 101.78 279.65L100.44 280.2C99.27 280.66 97.57 281.31 95.44 282.09C91.22 283.65 85.35 285.7 78.81 287.78C72.27 289.86 66.29 291.59 61.95 292.78C59.78 293.36 58.01 293.78 56.79 294.12L55.38 294.45C55.2184 294.502 55.0498 294.529 54.88 294.53C55.0276 294.449 55.1858 294.388 55.35 294.35L56.74 293.92L61.85 292.42C66.16 291.16 72.11 289.42 78.65 287.3C85.19 285.18 91.06 283.22 95.31 281.75L100.31 280.02L101.68 279.56C101.854 279.484 102.04 279.44 102.23 279.43ZM114.1 304.77C114.16 304.9 103.38 309.4 90.03 314.82C76.68 320.24 65.8 324.53 65.75 324.4C65.7 324.27 76.47 319.76 89.83 314.34C103.19 308.92 114.05 304.63 114.1 304.77ZM133.73 311.77C133.84 311.87 127.79 319.03 120.23 327.77C112.67 336.51 106.44 343.52 106.33 343.43C106.22 343.34 112.27 336.17 119.83 327.43C127.39 318.69 133.62 311.68 133.73 311.77ZM153.8 316.87C153.94 316.92 151.51 324.54 148.38 333.87C145.25 343.2 142.6 350.78 142.47 350.73C142.34 350.68 144.76 343.07 147.89 333.73C151.02 324.39 153.66 316.82 153.8 316.87ZM285 204.35C285.06 204.48 279.31 206.86 272.16 209.66C265.01 212.46 259.16 214.61 259.16 214.48C259.16 214.35 264.86 211.97 272.01 209.17C279.16 206.37 284.94 204.21 285 204.35Z" fill="white"/>
<path opacity="0.3" d="M199.65 162.57C208.93 187.7 225.65 201.75 249.26 214.35C235.298 212.802 221.917 207.9 210.26 200.06" fill="black"/>
<path d="M191.24 363H369.37V286.9C369.371 283.51 368.705 280.153 367.408 277.02C366.112 273.887 364.211 271.041 361.814 268.643C359.417 266.245 356.571 264.343 353.439 263.046C350.307 261.748 346.95 261.08 343.56 261.08H217.06C210.212 261.08 203.645 263.8 198.802 268.643C193.96 273.485 191.24 280.052 191.24 286.9V363Z" fill="#455A64"/>
<path d="M214.33 261.08H242.63C245.404 261.08 248.065 262.182 250.026 264.144C251.988 266.105 253.09 268.766 253.09 271.54V361.67C253.09 362.023 252.95 362.361 252.7 362.611C252.451 362.86 252.113 363 251.76 363H192.58C192.227 363 191.889 362.86 191.64 362.611C191.39 362.361 191.25 362.023 191.25 361.67V284.17C191.25 278.048 193.681 272.176 198.009 267.847C202.337 263.517 208.208 261.083 214.33 261.08Z" fill="#455A64"/>
<path d="M204.38 363V286.79C204.38 279.973 207.087 273.435 211.907 268.614C216.726 263.793 223.263 261.083 230.08 261.08H211.76C211.76 261.08 190.25 263.94 190.25 290.86C190.25 317.78 190.94 363 190.94 363H204.38Z" fill="#263238"/>
<path d="M103.64 355.76H253.09V364.24H103.64V355.76Z" fill="#263238"/>
<path d="M253.09 355.76H375.19V364.24H253.09V355.76Z" fill="#455A64"/>
<path d="M253.09 360C253.077 359.9 253.077 359.799 253.09 359.7V342.76C253.14 332.07 253.22 317.38 253.31 301.14C253.31 297.08 253.44 293.14 253.19 289.3C253.017 285.639 252.372 282.016 251.27 278.52C249.653 273.559 246.521 269.23 242.314 266.142C238.107 263.055 233.038 261.365 227.82 261.31C227.153 261.288 226.485 261.305 225.82 261.36C225.338 261.378 224.857 261.425 224.38 261.5L223.5 261.62H223.19L223.49 261.55L224.37 261.38C224.845 261.284 225.326 261.22 225.81 261.19C226.474 261.111 227.142 261.078 227.81 261.09C232.06 261.069 236.245 262.133 239.97 264.18C245.6 267.166 249.823 272.255 251.72 278.34C252.852 281.876 253.524 285.543 253.72 289.25C253.97 293.09 253.89 297.07 253.85 301.13C253.7 317.36 253.57 332.06 253.47 342.74C253.4 348.04 253.34 352.34 253.3 355.36C253.3 356.82 253.24 357.97 253.23 358.79V359.68C253.194 359.791 253.147 359.898 253.09 360Z" fill="#263238"/>
<path d="M374.35 355.55C374.35 355.69 346.53 355.86 312.23 355.92C277.93 355.98 250.11 355.92 250.11 355.76C250.11 355.6 277.91 355.45 312.23 355.39C346.55 355.33 374.35 355.41 374.35 355.55ZM374.35 364.58C374.35 364.72 346.73 364.76 312.68 364.67C278.63 364.58 251 364.39 251.01 364.24C251.02 364.09 278.61 364.06 312.68 364.15C346.75 364.24 374.35 364.43 374.35 364.58ZM358.27 346.08V340.67C358.27 337.16 358.22 332.05 358.19 325.59L358.34 325.75L278.41 325.85C278.52 325.74 278.14 326.11 278.66 325.59V346.09L278.4 345.84L335.4 345.95L352.21 346.02H358.34C358.214 346.03 358.086 346.03 357.96 346.02H352.33L335.58 346.09L278.4 346.21H278.15V325.45C278.67 324.93 278.3 325.31 278.42 325.19L358.35 325.29H358.51V325.45C358.51 331.95 358.44 337.09 358.42 340.63V345.63C358.389 345.786 358.338 345.937 358.27 346.08Z" fill="#263238"/>
<path d="M313.13 330.85V340H312.2V332.7L308.62 338.84H308.16L304.58 332.74V340H303.66V330.88H304.45L308.45 337.64L312.37 330.88L313.13 330.85ZM321.82 337.53H316.74L315.64 339.97H314.64L318.81 330.85H319.76L323.93 339.97H322.93L321.82 337.53ZM321.47 336.75L319.28 331.85L317.09 336.75H321.47ZM325.44 330.85H326.44V340H325.44V330.85ZM329.38 330.85H330.38V339.13H335.49V340H329.42L329.38 330.85Z" fill="#263238"/>
<path d="M348 240.22V225.22H320V285.36C317.733 286.7 315.975 288.755 315.003 291.202C314.031 293.649 313.899 296.35 314.629 298.88C315.359 301.41 316.908 303.626 319.034 305.179C321.16 306.733 323.742 307.537 326.374 307.463C329.006 307.39 331.539 306.445 333.576 304.775C335.612 303.106 337.036 300.807 337.624 298.24C338.212 295.674 337.93 292.984 336.824 290.595C335.717 288.206 333.848 286.252 331.51 285.04V240.22H348Z" fill="#414141"/>
<path d="M326.34 299.98C328.869 299.98 330.92 297.929 330.92 295.4C330.92 292.87 328.869 290.82 326.34 290.82C323.811 290.82 321.76 292.87 321.76 295.4C321.76 297.929 323.811 299.98 326.34 299.98Z" fill="#263238"/>
<path d="M154.29 149.28C154.393 149.476 154.48 149.68 154.55 149.89C154.783 150.487 154.98 151.099 155.14 151.72C155.729 154.004 155.959 156.365 155.82 158.72C155.622 162.231 154.627 165.651 152.91 168.72C150.767 172.499 147.498 175.515 143.56 177.35C139.635 179.232 135.197 179.759 130.94 178.85C127.502 178.052 124.321 176.402 121.69 174.05C119.925 172.47 118.435 170.608 117.28 168.54C116.966 167.984 116.685 167.41 116.44 166.82C116.338 166.62 116.261 166.408 116.21 166.19C116.27 166.19 116.6 167.03 117.46 168.44C118.661 170.44 120.169 172.239 121.93 173.77C124.537 176.038 127.668 177.622 131.04 178.38C135.195 179.24 139.517 178.709 143.34 176.87C147.183 175.081 150.382 172.152 152.5 168.48C154.202 165.471 155.21 162.119 155.45 158.67C155.625 156.344 155.453 154.005 154.94 151.73C154.58 150.15 154.23 149.3 154.29 149.28Z" fill="#263238"/>
<path d="M239.41 304.08L253.06 303.9L252.53 350.27L239.86 350.77L239.41 304.08Z" fill="#EBEBEB"/>
<path d="M239.86 350.77C241.728 348.355 243.732 346.048 245.86 343.86C247.879 341.551 250.029 339.361 252.3 337.3C250.406 339.711 248.383 342.018 246.24 344.21C244.236 346.512 242.106 348.702 239.86 350.77ZM253.06 319.52C250.604 317.165 248.268 314.688 246.06 312.1C243.717 309.63 241.504 307.04 239.43 304.34C241.888 306.692 244.225 309.169 246.43 311.76C248.769 314.233 250.982 316.823 253.06 319.52ZM137.15 100.7C137.15 101.404 137.356 102.093 137.744 102.681C138.131 103.269 138.683 103.731 139.33 104.008C139.977 104.286 140.691 104.368 141.385 104.244C142.078 104.12 142.719 103.795 143.23 103.31C145.16 101.48 144.5 98.2599 143.3 95.8799C142.1 93.4999 140.44 91.0899 140.79 88.4599C141.06 86.4599 142.46 84.7898 143.4 82.9798C144.232 81.4091 144.688 79.6664 144.732 77.8893C144.775 76.1122 144.405 74.3493 143.65 72.7399C142.855 71.1477 141.636 69.8058 140.128 68.8619C138.619 67.9179 136.879 67.4086 135.1 67.3899C131.49 67.4599 127.68 69.7198 124.47 68.0598C122.14 66.8498 121.17 64.0598 119.14 62.3398C116.01 59.7498 111.28 60.6098 107.57 62.3398C103.86 64.0698 100.31 66.4599 96.24 66.6599C92.85 66.8199 89.59 65.3999 86.24 64.9399C82.5691 64.4448 78.8351 65.1059 75.5574 66.8314C72.2797 68.5568 69.6211 71.2607 67.9514 74.5672C66.2817 77.8736 65.6838 81.6182 66.2409 85.2802C66.7981 88.9422 68.4825 92.3396 71.06 94.9999C72.8511 96.9828 75.2834 98.2715 77.93 98.6399" fill="#263238"/>
<path d="M141.68 177.12C136.592 178.797 131.046 178.388 126.258 175.983C121.471 173.578 117.832 169.373 116.14 164.29C114.14 158.23 112.43 153.13 112.43 153.13C112.43 153.13 96.33 155.59 91.29 140.3C86.25 125.01 78.29 90.9898 78.29 90.9898L77.8 88.9298C93.16 75.6798 115 73.4698 134.05 80.4198L135.05 83.5898L155.05 152.9C156.311 157.88 155.632 163.153 153.149 167.651C150.666 172.148 146.566 175.533 141.68 177.12Z" fill="#FFBE9D"/>
<path d="M91.76 113.54C92.1444 113.258 92.4343 112.865 92.5913 112.415C92.7483 111.964 92.7651 111.477 92.6395 111.017C92.5139 110.556 92.2517 110.145 91.8877 109.837C91.5236 109.529 91.0746 109.338 90.6 109.29C90.0326 109.22 89.4609 109.379 89.01 109.73C88.6185 110.01 88.3219 110.402 88.1597 110.855C87.9976 111.308 87.9778 111.8 88.1029 112.264C88.228 112.729 88.492 113.144 88.8597 113.454C89.2274 113.764 89.681 113.955 90.16 114C90.4438 114.032 90.7313 114.008 91.0058 113.929C91.2804 113.851 91.5367 113.718 91.76 113.54Z" fill="#263238"/>
<path d="M85.37 111.62C85.7 111.81 86.84 110.17 88.95 109.49C91.06 108.81 92.95 109.42 93.08 109.08C93.16 108.92 92.77 108.52 91.94 108.22C90.8342 107.853 89.6398 107.848 88.5314 108.208C87.4231 108.568 86.4589 109.273 85.78 110.22C85.29 111 85.22 111.54 85.37 111.62ZM111.17 105C110.867 105.35 110.675 105.782 110.618 106.242C110.561 106.701 110.641 107.167 110.849 107.581C111.056 107.994 111.382 108.337 111.784 108.566C112.187 108.794 112.648 108.898 113.11 108.865C113.571 108.831 114.013 108.661 114.378 108.377C114.743 108.093 115.016 107.706 115.161 107.267C115.307 106.828 115.319 106.355 115.196 105.909C115.073 105.463 114.82 105.063 114.47 104.76C113.999 104.357 113.389 104.156 112.771 104.201C112.153 104.246 111.577 104.533 111.17 105Z" fill="#263238"/>
<path d="M108.37 106.47C108.69 106.66 109.83 105.03 111.94 104.35C114.05 103.67 115.94 104.28 116.08 103.93C116.16 103.78 115.77 103.37 114.94 103.08C113.834 102.712 112.64 102.708 111.531 103.068C110.423 103.428 109.459 104.133 108.78 105.08C108.29 105.84 108.21 106.39 108.37 106.47ZM105.4 126.59C105.4 126.43 103.97 126.59 101.76 126.97C101.19 127.09 100.7 127.11 100.55 126.8C100.346 126.25 100.308 125.652 100.44 125.08C100.54 123.52 100.64 121.92 100.75 120.25C101.12 113.4 101.16 107.84 100.84 107.82C100.52 107.8 99.94 113.34 99.56 120.19C99.48 121.86 99.41 123.45 99.34 125.02C99.208 125.835 99.3561 126.67 99.76 127.39C99.9012 127.573 100.083 127.719 100.292 127.818C100.5 127.917 100.729 127.966 100.96 127.96C101.3 127.951 101.636 127.894 101.96 127.79C104.11 127.2 105.43 126.75 105.4 126.59Z" fill="#263238"/>
<path d="M113 126.76C114.79 124.76 108 131.89 103.59 133.04C104.657 133.926 105.993 134.423 107.379 134.45C108.765 134.477 110.119 134.033 111.22 133.19C115.28 130.06 113 126.76 113 126.76Z" fill="white"/>
<path d="M112.34 152.92C119.466 150.815 125.805 146.638 130.55 140.92C130.55 140.92 129.31 153.46 113.55 156.92L112.34 152.92Z" fill="#EB996E"/>
<path d="M137.27 94.07C137.58 93.85 148.44 89.59 150.69 103.12C152.94 116.65 138.53 114.43 138.44 114.05C138.35 113.67 137.27 94.07 137.27 94.07Z" fill="#FFBE9D"/>
<path d="M141.8 108.62C141.8 108.56 142.06 108.74 142.49 108.86C143.092 109.003 143.725 108.91 144.26 108.6C145.6 107.84 146.42 105.37 146.09 102.93C145.929 101.764 145.512 100.647 144.87 99.6602C144.671 99.2592 144.378 98.9123 144.016 98.6494C143.653 98.3864 143.233 98.2151 142.79 98.1502C142.507 98.1234 142.224 98.1968 141.99 98.3577C141.756 98.5186 141.586 98.7566 141.51 99.0302C141.39 99.4302 141.51 99.6902 141.51 99.7202C141.51 99.7502 141.18 99.5502 141.19 98.9702C141.216 98.6212 141.356 98.2906 141.59 98.0302C141.915 97.6903 142.36 97.4896 142.83 97.4702C143.404 97.4894 143.963 97.6546 144.454 97.9504C144.946 98.2461 145.354 98.6626 145.64 99.1602C146.38 100.246 146.846 101.495 147 102.8C147.37 105.53 146.4 108.32 144.54 109.2C144.194 109.369 143.815 109.457 143.43 109.457C143.045 109.457 142.666 109.369 142.32 109.2C141.88 108.94 141.76 108.65 141.8 108.62Z" fill="#EB996E"/>
<path d="M76.53 98.4099C76.53 98.4099 87.14 100.32 97.61 90.8399C104.47 84.6199 113.23 80.0599 115.74 81.0899C118.25 82.1199 120.97 90.2299 129.56 90.4099C129.56 90.4099 133.41 106.26 139.51 103.95C145.61 101.64 134.89 78.4199 134.89 78.4199L117.68 72.1099L100.09 73.6399L82.23 80.8499L73.53 90.1299L76.53 98.4099ZM132.33 64.9999C131.186 65.4276 130.092 65.9809 129.07 66.6499C128.146 67.4524 127.317 68.3584 126.6 69.3499C126.964 68.107 127.717 67.0137 128.748 66.2307C129.78 65.4476 131.035 65.0162 132.33 64.9999ZM124.16 60.6099C124.481 61.0004 124.726 61.4483 124.88 61.9299C125.358 63.0502 125.694 64.226 125.88 65.4299C126.066 66.6393 126.032 67.8724 125.78 69.0699C125.723 69.5781 125.545 70.0652 125.26 70.4899C125.494 68.8333 125.528 67.1545 125.36 65.4899C124.94 62.7699 124 60.6699 124.16 60.6099Z" fill="#263238"/>
<path d="M165.26 303.38L234.51 290.5L244.86 337.3L172.94 349.44L165.26 303.38Z" fill="#E0E0E0"/>
<path d="M234.51 290.5C234.51 290.5 234.51 290.57 234.39 290.69L234 291.24L232.46 293.3L226.7 300.83C221.76 307.21 214.98 315.98 207.43 325.72L207.3 325.89L207.11 325.79L205.76 325.08L177.07 309.83L168.41 305.15L166.06 303.86L165.46 303.51C165.387 303.472 165.32 303.425 165.26 303.37L165.48 303.46L166.11 303.76L168.5 305C170.61 306.09 173.58 307.64 177.25 309.53L206 324.62L207.34 325.33L207.01 325.4L226.4 300.61L232.29 293.17C232.98 292.33 233.52 291.66 233.91 291.17C234.09 290.97 234.23 290.8 234.34 290.66L234.51 290.5Z" fill="#263238"/>
<path d="M172.94 349.44C172.82 349.36 177.27 342.3 182.89 333.67C188.51 325.04 193.15 318.1 193.27 318.18C193.39 318.26 188.94 325.32 183.27 333.95C177.6 342.58 173.06 349.52 172.94 349.44ZM244.86 337.3C244.77 337.41 238.29 332.45 230.39 326.22C222.49 319.99 216.16 314.85 216.25 314.74C216.34 314.63 222.81 319.58 230.72 325.81C238.63 332.04 245 337.18 244.86 337.3Z" fill="#263238"/>
<path d="M167.08 313.82C167.08 313.82 167.57 322.89 171.94 322.82C176.31 322.75 191.73 314.33 193.52 317.25C195.31 320.17 190.58 324.25 190.58 324.25C190.58 324.25 196.01 324.17 193.99 327.42C191.97 330.67 185.92 345.89 180.33 347.32C172.33 349.37 153.8 350.17 153.8 350.17L159.51 318.3L167.08 313.82Z" fill="#FFBE9D"/>
<path d="M192.26 322.28C192.093 322.519 191.898 322.737 191.68 322.93C191.28 323.32 190.68 323.87 189.92 324.51C185.919 327.863 181.414 330.563 176.57 332.51C175.64 332.88 174.88 333.15 174.35 333.32C174.078 333.431 173.792 333.502 173.5 333.53C174.448 333.017 175.427 332.563 176.43 332.17C181.147 330.03 185.597 327.345 189.69 324.17C190.507 323.487 191.365 322.856 192.26 322.28ZM192 331.26C191.58 332.091 191.044 332.858 190.41 333.54C187.481 336.998 183.684 339.614 179.41 341.12C178.546 341.472 177.637 341.704 176.71 341.81C177.547 341.427 178.405 341.093 179.28 340.81C183.392 339.146 187.084 336.592 190.09 333.33C190.69 332.607 191.328 331.916 192 331.26Z" fill="#EB996E"/>
</svg>
